<svg xmlns="http://www.w3.org/2000/svg" viewBox="0 0 1127 406">
  <title>burgerr</title>
  <g id="burger">
    <g id="self">
      <path d="M31,315H1099a0,0,0,0,1,0,0v50.44A40.56,40.56,0,0,1,1058.44,406H71.18A40.18,40.18,0,0,1,31,365.82V315a0,0,0,0,1,0,0Z" fill="#e8a258"/>
      <g>
        <g id="bgr">
          <path d="M1301.49,597.9a.19.19,0,0,0-.26,0,29.12,29.12,0,0,1-8.67,6.55c-51.17,27.82-276.32,48.79-546.32,48.79-262.14,0-482-19.76-541.42-46.38-6.61-3-11.23-6-13.71-9.13a.06.06,0,0,0-.11,0l0,7.4C191,638.77,440.45,666,748.2,666s557.24-27.23,557.24-60.82C1305.44,602.72,1304.09,600.29,1301.49,597.9Z" transform="translate(-185 -305)" fill="#ba7932"/>
          <path d="M746.24,653.25c270,0,495.15-21,546.32-48.79,4-2.19,7-4.42,8.79-6.69a8.55,8.55,0,0,0,2.12-5.35c0-33.59-249.48-60.82-557.23-60.82S189,558.83,189,592.42c0,2.51,1.39,5,4.09,7.4a45.56,45.56,0,0,0,11.72,7C264.23,633.49,484.1,653.25,746.24,653.25Z" transform="translate(-185 -305)" fill="#c08a32"/>
        </g>
        <path d="M1299.53,575.49c-13.45-12.3-15.8-35.28-5.53-51.61a7.93,7.93,0,0,0,1.33-4.24c0-33.49-247-60.64-551.67-60.64S192,486.15,192,519.64c0,2.47,1.35,4.91,4,7.31,13.45,12.29,15.8,35.28,5.53,51.61a7.9,7.9,0,0,0-1.33,4.24c0,33.49,247,60.64,551.68,60.64s551.67-27.15,551.67-60.64C1303.5,580.32,1302.15,577.88,1299.53,575.49Z" transform="translate(-185 -305)" fill="#9f4a00"/>
      </g>
      <path d="M1285.64,527c11.89,0,19.25-15.15,13.19-27.13C1242.4,388.38,1015.07,305,743.21,305S244,388.38,187.6,499.87c-6.06,12,1.3,27.13,13.19,27.13Z" transform="translate(-185 -305)" fill="#e8a258"/>
    </g>
  </g>
  <g id="cheese">
    <g id="cheese_item" data-name="cheese item">
      <rect x="1" y="214.51" width="1125" height="50.92" rx="25.46" fill="#ffce61"/>
      <rect x="122" y="239" width="92" height="52.82" rx="26.41" fill="#ffce61"/>
      <rect x="526" y="239" width="264" height="52.82" rx="26.41" fill="#ffce61"/>
      <rect x="922" y="200" width="123" height="52.82" rx="26.41" fill="#ffce61"/>
      <rect x="352" y="188" width="123" height="52.82" rx="26.41" fill="#ffce61"/>
    </g>
  </g>
  <g id="vegetables">
    <g id="vegetable_item" data-name="vegetable item">
      <g>
        <path d="M1306.67,530.8h0a28.2,28.2,0,0,1-25.85,17.05H210.22a28.07,28.07,0,0,1-22.86-11.8h0A28.36,28.36,0,0,0,185,547.43h0a28.32,28.32,0,0,0,28.2,28.42H1283.8a28.31,28.31,0,0,0,28.2-28.42h0A28.47,28.47,0,0,0,1306.67,530.8Z" transform="translate(-185 -305)" fill="none"/>
        <path d="M210.22,547.85h1070.6a28.2,28.2,0,0,0,25.85-17.05h0A28.11,28.11,0,0,0,1283.8,519H213.2a28.19,28.19,0,0,0-25.84,17h0A28.07,28.07,0,0,0,210.22,547.85Z" transform="translate(-185 -305)" fill="#3bce61"/>
      </g>
      <rect x="370" y="203.79" width="92" height="22.21" rx="11.1" fill="#3bce61"/>
      <rect x="555" y="213.79" width="92" height="50.21" rx="25.1" fill="#3bce61"/>
      <path d="M673.92,227.79H762a0,0,0,0,1,0,0v26.34A23.86,23.86,0,0,1,738.14,278H693.86A23.86,23.86,0,0,1,670,254.14V231.71a3.92,3.92,0,0,1,3.92-3.92Z" fill="#3bce61"/>
      <rect x="938" y="210.79" width="92" height="22.21" rx="11.1" fill="#3bce61"/>
      <rect x="14" y="217.79" width="92" height="22.21" rx="11.1" fill="#3bce61"/>
      <rect x="326.45" y="519.34" width="54" height="67.1" rx="27" transform="translate(721.34 -105.55) rotate(90)" fill="#3bce61"/>
    </g>
  </g>
  <g id="seeds">
    <g id="seed">
      <ellipse cx="442.5" cy="114" rx="28.5" ry="14" fill="#ffea9f"/>
      <ellipse cx="560.5" cy="114" rx="28.5" ry="14" fill="#ffea9f"/>
      <ellipse cx="589.5" cy="71" rx="28.5" ry="14" fill="#ffea9f"/>
      <ellipse cx="707.5" cy="79" rx="28.5" ry="14" fill="#ffea9f"/>
      <ellipse cx="790.5" cy="134" rx="28.5" ry="14" fill="#ffea9f"/>
      <ellipse cx="868.5" cy="93" rx="28.5" ry="14" fill="#ffea9f"/>
      <ellipse cx="958.5" cy="135" rx="28.5" ry="14" fill="#ffea9f"/>
      <ellipse cx="282.5" cy="100" rx="28.5" ry="14" fill="#ffea9f"/>
      <ellipse cx="385.5" cy="71" rx="28.5" ry="14" fill="#ffea9f"/>
      <ellipse cx="355.5" cy="134" rx="28.5" ry="14" fill="#ffea9f"/>
      <ellipse cx="150.5" cy="148" rx="28.5" ry="14" fill="#ffea9f"/>
    </g>
  </g>
</svg>
