<svg pointer-events="none" class="leaflet-zoom-animated" width="1902" height="1136" viewBox="-158 -95 1902 1136" style="transform: translate3d(-158px, -95px, 0px);"><g><path class="leaflet-interactive" stroke="#555" stroke-opacity="1" stroke-width="1" stroke-linecap="round" stroke-linejoin="round" stroke-dasharray="0" fill="#bd0026" fill-opacity="0.7" fill-rule="evenodd" d="M1363 732L1358 724L1352 718L1352 706L1348 703L1350 696L1346 691L1339 687L1337 681L1340 676L1335 674L1328 674L1325 678L1323 677L1317 679L1311 678L1304 674L1302 678L1298 679L1299 685L1302 689L1301 692L1305 699L1312 705L1305 714L1299 714L1296 717L1302 722L1302 726L1299 733L1301 736L1299 742L1296 744L1305 751L1308 756L1305 764L1309 767L1307 772L1310 774L1309 783L1306 788L1311 787L1315 791L1323 787L1324 788L1336 784L1342 783L1343 785L1342 781L1346 771L1351 768L1347 757L1348 753L1355 746L1360 744L1364 739L1365 735z"></path><path class="leaflet-interactive" stroke="#555" stroke-opacity="1" stroke-width="1" stroke-linecap="round" stroke-linejoin="round" stroke-dasharray="0" fill="#bd0026" fill-opacity="0.7" fill-rule="evenodd" d="M1389 740L1380 729L1372 731L1368 729L1363 732L1365 735L1364 739L1360 744L1355 746L1348 753L1347 757L1351 768L1346 771L1342 781L1345 793L1355 796L1357 793L1362 795L1369 794L1374 798L1382 800L1386 795L1392 795L1397 797L1404 794L1410 796L1420 796L1417 792L1410 792L1412 789L1410 783L1410 776L1405 771L1399 775L1395 774L1393 759L1388 753L1386 747z"></path><path class="leaflet-interactive" stroke="#555" stroke-opacity="1" stroke-width="1" stroke-linecap="round" stroke-linejoin="round" stroke-dasharray="0" fill="#bd0026" fill-opacity="0.7" fill-rule="evenodd" d="M1440 819L1444 827L1443 829L1454 836L1459 836L1463 831L1472 835L1475 832L1483 830L1485 832L1485 824L1488 823L1489 813L1496 819L1502 813L1505 820L1509 812L1514 809L1516 819L1523 815L1525 810L1531 812L1527 801L1528 795L1522 789L1523 784L1519 778L1522 771L1514 767L1511 761L1504 761L1500 752L1501 750L1495 747L1488 746L1478 749L1468 758L1456 765L1450 764L1441 773L1438 778L1443 783L1440 792L1431 797L1424 796L1433 803L1434 809L1439 813L1436 817z"></path><path class="leaflet-interactive" stroke="#555" stroke-opacity="1" stroke-width="1" stroke-linecap="round" stroke-linejoin="round" stroke-dasharray="0" fill="#bd0026" fill-opacity="0.7" fill-rule="evenodd" d="M1531 812L1525 810L1523 815L1516 819L1514 809L1509 812L1505 820L1502 813L1496 819L1489 813L1488 823L1485 824L1485 832L1483 830L1475 832L1472 835L1463 831L1459 836L1454 836L1443 829L1444 827L1440 819L1438 823L1434 826L1432 839L1434 847L1431 850L1432 868L1435 878L1438 883L1444 885L1448 889L1451 887L1454 888L1458 876L1469 883L1471 877L1479 875L1483 881L1482 884L1491 891L1495 892L1495 896L1498 898L1502 897L1502 894L1514 882L1514 878L1516 875L1516 858L1519 855L1523 844L1527 840L1527 829L1530 825z"></path><path class="leaflet-interactive" stroke="#555" stroke-opacity="1" stroke-width="1" stroke-linecap="round" stroke-linejoin="round" stroke-dasharray="0" fill="#bd0026" fill-opacity="0.7" fill-rule="evenodd" d="M1298 679L1284 680L1283 678L1279 683L1273 684L1270 687L1257 688L1256 696L1258 705L1254 707L1255 712L1248 716L1245 720L1240 722L1234 722L1229 728L1222 730L1212 738L1216 746L1222 747L1228 744L1230 740L1238 737L1255 744L1260 749L1265 760L1269 763L1270 773L1272 777L1271 783L1274 792L1279 794L1285 794L1290 789L1299 789L1302 787L1306 788L1309 783L1310 774L1307 772L1309 767L1305 764L1308 756L1305 751L1296 744L1299 742L1301 736L1299 733L1302 726L1302 722L1296 717L1299 714L1305 714L1312 705L1305 699L1301 692L1302 689L1299 685z"></path><path class="leaflet-interactive" stroke="#555" stroke-opacity="1" stroke-width="1" stroke-linecap="round" stroke-linejoin="round" stroke-dasharray="0" fill="#bd0026" fill-opacity="0.7" fill-rule="evenodd" d="M1420 796L1410 796L1404 794L1397 797L1392 795L1386 795L1382 800L1378 799L1379 804L1374 814L1377 822L1372 828L1367 838L1370 847L1367 852L1367 858L1360 866L1361 869L1358 876L1359 887L1363 889L1363 896L1372 896L1377 901L1380 898L1380 893L1386 886L1393 886L1400 882L1415 887L1416 889L1422 892L1422 894L1434 892L1433 889L1438 887L1438 883L1432 868L1431 850L1434 847L1432 839L1434 826L1438 823L1440 819L1436 817L1439 813L1434 809L1433 803L1424 796z"></path><path class="leaflet-interactive" stroke="#555" stroke-opacity="1" stroke-width="1" stroke-linecap="round" stroke-linejoin="round" fill="#bd0026" fill-opacity="0.7" fill-rule="evenodd" d="M1256 696L1253 699L1237 698L1236 693L1225 684L1224 681L1218 682L1218 677L1213 669L1210 669L1205 662L1201 662L1198 660L1195 661L1189 669L1180 676L1179 680L1174 687L1172 700L1176 705L1177 709L1170 716L1175 720L1180 715L1190 721L1195 721L1196 727L1200 729L1201 728L1212 738L1222 730L1229 728L1234 722L1240 722L1245 720L1248 716L1255 712L1254 707L1258 705z" stroke-dasharray="0"></path><path class="leaflet-interactive" stroke="#555" stroke-opacity="1" stroke-width="1" stroke-linecap="round" stroke-linejoin="round" stroke-dasharray="0" fill="#bd0026" fill-opacity="0.7" fill-rule="evenodd" d="M1495 747L1495 741L1498 739L1500 720L1503 717L1503 710L1506 702L1509 699L1505 692L1507 683L1511 681L1509 678L1504 683L1498 701L1488 710L1478 709L1472 711L1468 710L1457 712L1448 711L1442 708L1439 713L1452 723L1450 727L1446 729L1444 736L1422 748L1412 761L1414 763L1406 771L1410 776L1410 783L1412 789L1410 792L1417 792L1420 796L1431 797L1440 792L1443 783L1438 778L1450 764L1456 765L1468 758L1478 749L1488 746z"></path><path class="leaflet-interactive" stroke="#555" stroke-opacity="1" stroke-width="1" stroke-linecap="round" stroke-linejoin="round" fill="#bd0026" fill-opacity="0.7" fill-rule="evenodd" d="M1436 603L1437 597L1430 597L1426 602L1422 600L1420 591L1415 591L1412 595L1404 594L1397 599L1388 597L1394 595L1391 592L1383 595L1381 598L1373 599L1370 595L1363 594L1358 596L1356 600L1343 599L1336 596L1329 580L1325 578L1322 573L1313 572L1309 583L1313 594L1311 599L1317 601L1312 606L1311 614L1316 619L1313 626L1312 636L1308 641L1306 651L1309 657L1305 662L1308 669L1304 674L1311 678L1317 679L1323 677L1325 678L1328 674L1335 674L1340 676L1337 681L1339 687L1346 691L1350 696L1348 703L1352 706L1352 718L1358 724L1360 729L1363 732L1368 729L1372 731L1380 729L1389 740L1391 732L1397 731L1400 728L1402 717L1409 707L1398 692L1396 685L1399 677L1398 671L1404 656L1403 652L1408 645L1411 645L1417 625L1421 630L1426 630L1428 622L1431 623L1432 618L1436 614L1435 612L1438 606z" stroke-dasharray="0"></path><path class="leaflet-interactive" stroke="#555" stroke-opacity="1" stroke-width="1" stroke-linecap="round" stroke-linejoin="round" fill="#bd0026" fill-opacity="0.7" fill-rule="evenodd" d="M1312 573L1303 571L1301 565L1295 563L1288 557L1284 560L1277 559L1274 555L1269 553L1272 547L1267 541L1258 540L1253 543L1253 546L1248 548L1244 547L1243 542L1237 540L1235 541L1236 549L1230 552L1226 566L1227 574L1230 575L1234 581L1234 591L1231 601L1236 604L1235 610L1237 613L1231 625L1231 631L1229 635L1226 635L1225 639L1222 642L1212 643L1208 648L1206 648L1200 653L1198 660L1201 662L1205 662L1210 669L1213 669L1218 677L1218 682L1224 681L1225 684L1236 693L1237 698L1253 699L1256 696L1257 688L1270 687L1273 684L1279 683L1283 678L1284 680L1302 678L1308 669L1305 662L1309 657L1306 651L1308 641L1312 636L1313 626L1316 619L1311 614L1312 606L1317 601L1311 599L1313 594L1309 583L1311 579z" stroke-dasharray="0"></path><path class="leaflet-interactive" stroke="#555" stroke-opacity="1" stroke-width="1" stroke-linecap="round" stroke-linejoin="round" stroke-dasharray="0" fill="#bd0026" fill-opacity="0.7" fill-rule="evenodd" d="M1378 799L1374 798L1369 794L1362 795L1357 793L1355 796L1345 793L1333 819L1327 820L1323 818L1317 827L1317 835L1311 845L1313 855L1309 861L1303 863L1297 872L1302 872L1303 867L1318 863L1323 856L1323 852L1328 853L1328 861L1332 880L1344 890L1353 888L1355 890L1359 887L1358 876L1361 869L1360 866L1367 858L1367 852L1370 847L1367 838L1372 828L1377 822L1374 814L1379 804z"></path><path class="leaflet-interactive" stroke="#555" stroke-opacity="1" stroke-width="1" stroke-linecap="round" stroke-linejoin="round" stroke-dasharray="0" fill="#bd0026" fill-opacity="0.7" fill-rule="evenodd" d="M1509 678L1509 674L1505 670L1505 666L1508 663L1512 647L1518 643L1519 636L1523 632L1525 627L1524 624L1526 616L1529 615L1530 609L1533 606L1528 600L1534 596L1533 593L1529 592L1522 587L1514 590L1512 584L1509 586L1502 582L1494 586L1484 580L1472 581L1470 578L1471 573L1466 573L1465 579L1458 583L1452 596L1447 603L1440 601L1436 603L1438 606L1435 612L1436 614L1432 618L1431 623L1428 622L1426 630L1421 630L1417 625L1411 645L1408 645L1403 652L1404 656L1398 671L1399 677L1396 685L1398 692L1409 707L1433 713L1439 713L1442 708L1448 711L1457 712L1468 710L1472 711L1478 709L1488 710L1498 701L1504 683z"></path><path class="leaflet-interactive" stroke="#555" stroke-opacity="1" stroke-width="1" stroke-linecap="round" stroke-linejoin="round" stroke-dasharray="0" fill="#bd0026" fill-opacity="0.7" fill-rule="evenodd" d="M1439 713L1433 713L1409 707L1402 717L1400 728L1397 731L1391 732L1386 747L1388 753L1393 759L1395 774L1399 775L1414 763L1412 761L1422 748L1444 736L1446 729L1450 727L1452 723z"></path><path class="leaflet-interactive" stroke="#555" stroke-opacity="1" stroke-width="1" stroke-linecap="round" stroke-linejoin="round" stroke-dasharray="0" fill="#bd0026" fill-opacity="0.7" fill-rule="evenodd" d="M1212 738L1204 731L1200 737L1201 738L1198 740L1195 738L1192 746L1189 746L1192 748L1195 746L1199 748L1196 754L1202 762L1199 773L1197 775L1184 778L1184 780L1174 788L1173 791L1161 782L1161 785L1165 789L1174 792L1178 796L1182 792L1187 791L1199 794L1202 787L1209 787L1216 791L1220 791L1221 795L1225 797L1228 802L1234 803L1234 806L1230 811L1234 811L1238 814L1234 820L1237 821L1237 825L1240 830L1244 831L1251 831L1254 828L1259 831L1261 828L1267 827L1270 832L1278 827L1285 827L1286 831L1294 827L1299 821L1300 816L1303 821L1309 822L1313 830L1317 827L1323 818L1327 820L1333 819L1335 816L1341 804L1343 795L1345 793L1345 789L1342 783L1324 788L1323 787L1315 791L1311 787L1302 787L1299 789L1290 789L1285 794L1279 794L1274 792L1271 783L1272 777L1270 773L1269 763L1265 760L1260 749L1255 744L1238 737L1230 740L1228 744L1222 747L1216 746z"></path><path class="leaflet-interactive" stroke="#555" stroke-opacity="1" stroke-width="1" stroke-linecap="round" stroke-linejoin="round" stroke-dasharray="0" fill="#bd0026" fill-opacity="0.7" fill-rule="evenodd" d="M983 795L983 783L981 781L981 772L987 760L984 758L988 751L987 746L993 741L996 736L1000 721L999 722L997 718L994 717L985 718L978 714L977 710L968 700L967 695L961 693L959 695L956 694L952 696L951 693L945 695L945 703L943 707L946 714L944 728L941 734L943 740L938 754L936 753L933 759L936 761L935 764L926 771L934 775L944 776L947 780L946 785L951 786L952 790L960 791L956 794L955 798L966 798L969 794z"></path><path class="leaflet-interactive" stroke="#555" stroke-opacity="1" stroke-width="1" stroke-linecap="round" stroke-linejoin="round" stroke-dasharray="0" fill="#bd0026" fill-opacity="0.7" fill-rule="evenodd" d="M1161 782L1173 791L1174 788L1180 785L1180 783L1170 774L1168 774L1168 772L1167 773L1164 770L1159 769L1153 765L1131 763L1127 757L1127 753L1121 746L1122 744L1117 741L1119 747L1121 748L1123 756L1118 759L1120 762L1117 766L1116 776L1118 776L1114 794L1118 795L1117 805L1114 816L1111 820L1113 825L1112 830L1116 833L1116 839L1106 846L1107 856L1117 848L1123 847L1125 840L1128 838L1135 839L1138 836L1146 838L1155 844L1158 844L1160 848L1161 842L1169 836L1169 832L1164 819L1162 819L1159 812L1161 798L1157 790L1157 785z"></path><path class="leaflet-interactive" stroke="#555" stroke-opacity="1" stroke-width="1" stroke-linecap="round" stroke-linejoin="round" stroke-dasharray="0" fill="#bd0026" fill-opacity="0.7" fill-rule="evenodd" d="M1116 741L1111 738L1108 741L1106 741L1103 738L1104 735L1102 734L1095 741L1097 747L1087 761L1083 777L1079 784L1079 789L1074 796L1075 800L1082 805L1084 810L1084 839L1091 844L1097 845L1100 849L1102 847L1106 849L1106 846L1116 839L1116 833L1112 830L1113 825L1111 820L1114 816L1117 805L1118 795L1114 794L1118 776L1116 776L1117 766L1120 762L1118 759L1123 756L1121 748L1119 747z"></path><path class="leaflet-interactive" stroke="#555" stroke-opacity="1" stroke-width="1" stroke-linecap="round" stroke-linejoin="round" stroke-dasharray="0" fill="#bd0026" fill-opacity="0.7" fill-rule="evenodd" d="M945 695L943 695L942 693L937 694L937 692L932 691L931 688L930 689L927 686L924 687L922 683L916 683L916 681L913 678L905 679L901 677L900 680L886 680L885 677L880 675L874 675L872 673L870 674L870 678L868 681L869 682L866 683L868 685L866 686L867 689L860 690L857 693L857 695L880 699L884 702L894 722L894 736L891 745L892 748L887 753L886 759L906 767L910 764L913 769L916 764L924 766L926 771L935 764L936 761L933 759L936 753L938 754L943 740L941 734L944 728L946 714L943 707L945 703z"></path><path class="leaflet-interactive" stroke="#555" stroke-opacity="1" stroke-width="1" stroke-linecap="round" stroke-linejoin="round" stroke-dasharray="0" fill="#bd0026" fill-opacity="0.7" fill-rule="evenodd" d="M1010 820L1015 817L1011 813L1013 811L1009 808L1012 802L1014 801L1013 797L1023 790L1021 784L1023 781L1024 773L1021 766L1030 754L1029 751L1037 744L1042 733L1041 732L1038 735L1033 734L1033 730L1023 728L1022 725L1016 725L1015 723L1004 720L1001 721L993 741L987 746L988 751L984 758L987 760L981 772L981 781L983 783L983 795L986 796L986 803L983 807L989 817L1006 819z"></path><path class="leaflet-interactive" stroke="#555" stroke-opacity="1" stroke-width="1" stroke-linecap="round" stroke-linejoin="round" stroke-dasharray="0" fill="#bd0026" fill-opacity="0.7" fill-rule="evenodd" d="M1221 860L1231 862L1237 871L1245 873L1249 877L1260 880L1265 885L1269 884L1272 878L1285 882L1289 879L1296 878L1295 874L1303 863L1309 861L1313 855L1311 845L1317 835L1317 827L1313 830L1309 822L1303 821L1300 816L1299 821L1294 827L1286 831L1285 827L1278 827L1270 832L1267 827L1261 828L1259 831L1254 828L1251 831L1244 831L1240 830L1237 825L1237 821L1234 820L1238 814L1234 811L1230 811L1228 817L1229 820L1224 824L1224 838L1226 850L1223 854z"></path><path class="leaflet-interactive" stroke="#555" stroke-opacity="1" stroke-width="1" stroke-linecap="round" stroke-linejoin="round" stroke-dasharray="0" fill="#bd0026" fill-opacity="0.7" fill-rule="evenodd" d="M1221 860L1226 850L1224 838L1224 824L1229 820L1228 817L1230 811L1234 806L1234 803L1228 802L1225 797L1221 795L1220 791L1216 791L1209 787L1202 787L1199 794L1187 791L1182 792L1178 796L1174 792L1165 789L1161 785L1161 782L1157 785L1157 790L1161 798L1159 812L1162 819L1164 819L1169 832L1169 836L1161 842L1160 848L1168 847L1169 851L1175 851L1179 847L1195 846L1195 848L1205 851L1205 853L1216 856z"></path><path class="leaflet-interactive" stroke="#555" stroke-opacity="1" stroke-width="1" stroke-linecap="round" stroke-linejoin="round" fill="#bd0026" fill-opacity="0.7" fill-rule="evenodd" d="M1099 735L1083 728L1081 730L1077 730L1073 735L1065 740L1055 740L1051 738L1042 739L1040 737L1037 744L1029 751L1030 754L1021 766L1024 773L1023 781L1021 784L1023 790L1013 797L1014 801L1012 802L1009 808L1013 811L1011 813L1015 817L1010 820L1018 817L1025 811L1033 813L1041 809L1041 806L1045 806L1050 801L1054 801L1056 796L1057 799L1064 794L1068 798L1075 800L1074 796L1079 789L1079 784L1083 777L1087 761L1097 747L1095 741z" stroke-dasharray="0"></path><path class="leaflet-interactive" stroke="#555" stroke-opacity="1" stroke-width="1" stroke-linecap="round" stroke-linejoin="round" fill="#bd0026" fill-opacity="0.7" fill-rule="evenodd" d="M1145 583L1133 581L1123 575L1129 565L1115 552L1114 540L1109 537L1110 533L1105 525L1102 525L1099 521L1096 522L1092 527L1087 527L1069 532L1066 536L1063 535L1060 530L1057 531L1052 528L1048 528L1040 534L1040 541L1037 541L1031 546L1038 551L1041 557L1039 569L1040 579L1036 590L1033 594L1032 600L1037 609L1048 606L1054 611L1051 613L1054 615L1061 615L1062 618L1070 620L1075 625L1075 628L1079 634L1087 629L1094 632L1099 631L1099 636L1104 640L1107 638L1112 643L1117 638L1118 632L1122 631L1121 623L1127 616L1138 616L1139 613L1136 610L1136 602L1133 598L1141 590z" stroke-dasharray="0"></path><path class="leaflet-interactive" stroke="#555" stroke-opacity="1" stroke-width="1" stroke-linecap="round" stroke-linejoin="round" stroke-dasharray="0" fill="#bd0026" fill-opacity="0.7" fill-rule="evenodd" d="M1111 642L1107 638L1104 640L1099 636L1099 631L1094 632L1087 629L1079 634L1075 628L1075 625L1070 620L1062 618L1061 615L1054 615L1049 613L1046 619L1046 623L1043 626L1040 634L1035 640L1033 638L1027 641L1030 644L1027 647L1024 645L1024 651L1021 653L1024 656L1030 657L1031 671L1025 676L1027 685L1031 686L1032 689L1036 689L1037 692L1039 691L1053 699L1067 696L1069 700L1075 697L1079 698L1077 694L1081 685L1083 684L1092 687L1094 678L1100 676L1096 666L1100 662L1102 656L1101 652L1105 649z"></path><path class="leaflet-interactive" stroke="#555" stroke-opacity="1" stroke-width="1" stroke-linecap="round" stroke-linejoin="round" stroke-dasharray="0" fill="#bd0026" fill-opacity="0.7" fill-rule="evenodd" d="M1015 631L1007 626L1002 636L1004 638L1004 646L993 658L996 660L993 665L1000 675L1004 675L1009 679L1018 681L1023 685L1027 685L1025 676L1031 671L1030 657L1024 656L1021 653L1024 651L1024 645L1027 647L1030 644L1027 641z"></path><path class="leaflet-interactive" stroke="#555" stroke-opacity="1" stroke-width="1" stroke-linecap="round" stroke-linejoin="round" stroke-dasharray="0" fill="#bd0026" fill-opacity="0.7" fill-rule="evenodd" d="M1046 619L1037 621L1030 619L1019 626L1015 631L1027 641L1033 638L1035 640L1046 623z"></path><path class="leaflet-interactive" stroke="#555" stroke-opacity="1" stroke-width="1" stroke-linecap="round" stroke-linejoin="round" stroke-dasharray="0" fill="#bd0026" fill-opacity="0.7" fill-rule="evenodd" d="M1051 613L1054 611L1048 606L1037 609L1032 600L1026 602L1022 600L1019 602L1004 602L997 609L1000 612L999 615L994 615L990 620L987 621L985 628L993 635L991 640L994 641L995 650L999 651L1004 646L1004 638L1002 636L1007 626L1015 631L1019 626L1030 619L1037 621L1046 619L1049 613z"></path><path class="leaflet-interactive" stroke="#555" stroke-opacity="1" stroke-width="1" stroke-linecap="round" stroke-linejoin="round" stroke-dasharray="0" fill="#bd0026" fill-opacity="0.7" fill-rule="evenodd" d="M1031 546L1025 550L1024 555L1015 560L1011 564L1004 566L1001 570L985 568L985 559L976 557L975 555L982 546L973 544L972 547L962 549L958 555L950 558L951 563L956 564L956 569L952 573L954 574L949 586L949 593L955 597L953 602L959 601L959 604L967 607L973 612L997 609L1004 602L1019 602L1022 600L1026 602L1032 600L1033 594L1036 590L1040 579L1039 569L1041 557L1038 551z"></path><path class="leaflet-interactive" stroke="#555" stroke-opacity="1" stroke-width="1" stroke-linecap="round" stroke-linejoin="round" stroke-dasharray="0" fill="#bd0026" fill-opacity="0.7" fill-rule="evenodd" d="M1096 522L1087 513L1084 503L1085 497L1082 490L1083 486L1080 483L1075 484L1076 491L1072 491L1070 497L1071 500L1067 506L1062 510L1059 499L1050 498L1043 494L1034 493L1026 495L1026 499L1019 505L1014 503L1013 500L1004 503L997 502L995 497L988 493L984 496L980 494L987 510L985 518L988 521L986 528L984 528L979 534L978 539L974 541L973 544L982 546L975 555L976 557L985 559L985 568L1001 570L1004 566L1011 564L1015 560L1024 555L1025 550L1037 541L1040 541L1040 534L1048 528L1052 528L1057 531L1060 530L1063 535L1066 536L1069 532L1087 527L1092 527z"></path><path class="leaflet-interactive" stroke="#555" stroke-opacity="1" stroke-width="1" stroke-linecap="round" stroke-linejoin="round" stroke-dasharray="0" fill="#bd0026" fill-opacity="0.7" fill-rule="evenodd" d="M980 494L973 494L970 491L965 491L958 497L959 498L957 500L958 502L956 509L952 510L950 513L949 512L944 519L946 523L942 533L943 536L937 538L935 542L931 542L926 538L922 539L916 555L917 561L912 564L912 566L903 574L902 577L903 585L911 601L910 602L908 600L902 605L900 603L899 604L890 600L882 601L886 604L885 608L891 608L893 612L891 617L895 620L907 617L914 623L914 630L920 626L929 631L934 625L942 628L949 623L953 623L959 627L965 623L969 623L973 628L978 631L985 628L987 621L990 620L994 615L999 615L1000 613L997 609L973 612L967 607L959 604L959 601L953 602L955 597L949 593L949 586L954 574L952 573L956 569L956 564L951 563L950 558L958 555L962 549L972 547L974 541L978 539L979 534L984 528L986 528L988 521L985 518L987 510L983 500z"></path><path class="leaflet-interactive" stroke="#555" stroke-opacity="1" stroke-width="1" stroke-linecap="round" stroke-linejoin="round" fill="#bd0026" fill-opacity="0.7" fill-rule="evenodd" d="M1170 717L1161 717L1160 719L1153 712L1150 713L1146 708L1143 709L1132 699L1130 699L1129 692L1125 688L1123 690L1119 685L1111 683L1100 676L1094 678L1092 687L1083 684L1081 685L1077 694L1079 698L1075 697L1069 700L1067 696L1053 699L1039 691L1032 697L1032 699L1027 702L1029 708L1038 713L1040 717L1040 723L1042 722L1042 728L1040 727L1039 732L1042 732L1040 736L1042 739L1051 738L1055 740L1066 740L1078 730L1081 730L1083 728L1097 735L1103 735L1104 739L1108 742L1112 738L1115 741L1122 743L1122 748L1127 753L1127 757L1133 764L1153 765L1159 769L1164 770L1167 773L1168 772L1168 774L1176 778L1180 785L1184 778L1192 775L1198 775L1199 773L1202 762L1196 754L1199 748L1195 746L1193 748L1189 747L1192 746L1195 739L1198 740L1200 738L1204 731L1201 728L1200 729L1196 727L1194 721L1184 718L1181 715L1175 720L1171 717z" stroke-dasharray="0"></path><path class="leaflet-interactive" stroke="#555" stroke-opacity="1" stroke-width="1" stroke-linecap="round" stroke-linejoin="round" fill="#bd0026" fill-opacity="0.7" fill-rule="evenodd" d="M1232 602L1221 602L1215 597L1209 601L1210 607L1208 615L1211 618L1201 626L1197 626L1190 636L1188 642L1170 649L1161 659L1159 666L1154 670L1151 666L1133 665L1131 662L1133 657L1124 647L1111 642L1101 652L1102 656L1100 662L1096 666L1100 676L1111 683L1119 685L1123 690L1125 688L1129 692L1130 699L1132 699L1143 709L1146 708L1150 713L1153 712L1160 719L1161 717L1170 717L1176 709L1176 705L1172 701L1174 692L1173 690L1179 680L1180 675L1185 673L1194 662L1198 660L1200 653L1202 651L1208 648L1212 643L1222 642L1225 639L1225 637L1229 634L1231 630L1231 624L1233 623L1235 615L1237 613L1235 610L1236 603L1232 602z" stroke-dasharray="0"></path><path class="leaflet-interactive" stroke="#555" stroke-opacity="1" stroke-width="1" stroke-linecap="round" stroke-linejoin="round" fill="#bd0026" fill-opacity="0.7" fill-rule="evenodd" d="M1232 602L1231 601L1234 592L1234 581L1233 578L1227 574L1227 572L1223 572L1218 575L1218 577L1213 582L1208 582L1202 576L1196 576L1194 570L1191 574L1185 567L1176 568L1173 561L1174 557L1170 545L1173 543L1173 539L1169 534L1167 527L1165 528L1165 533L1157 539L1154 544L1148 544L1150 550L1147 558L1152 566L1155 578L1149 579L1133 598L1136 602L1136 610L1139 613L1138 616L1127 616L1121 623L1122 631L1118 632L1117 638L1112 643L1124 647L1133 657L1131 662L1133 665L1151 666L1154 670L1159 666L1161 659L1170 649L1188 642L1190 636L1197 626L1201 626L1211 618L1208 615L1210 607L1209 601L1215 597L1221 602z" stroke-dasharray="0"></path><path class="leaflet-interactive" stroke="#555" stroke-opacity="1" stroke-width="1" stroke-linecap="round" stroke-linejoin="round" stroke-dasharray="0" fill="#bd0026" fill-opacity="0.7" fill-rule="evenodd" d="M985 628L978 631L973 628L969 623L965 623L959 627L953 623L949 623L942 628L934 625L929 631L920 626L914 630L913 627L908 634L902 634L899 637L903 644L902 649L897 654L893 655L892 661L896 671L890 680L899 680L901 677L905 679L913 678L916 681L916 683L922 683L924 687L927 686L930 689L931 688L932 691L937 692L937 694L942 693L947 695L951 693L952 696L956 694L959 695L961 693L967 694L969 701L977 710L977 712L984 716L983 717L994 717L997 718L999 722L1004 720L1017 725L1022 725L1023 728L1033 730L1033 734L1038 735L1041 733L1039 732L1040 727L1042 728L1042 722L1040 723L1040 717L1038 713L1029 708L1027 702L1032 699L1032 697L1037 692L1036 689L1032 689L1031 686L1023 685L1018 681L1009 679L1004 675L1000 675L993 665L996 660L993 658L999 651L995 650L994 641L991 640L993 635z"></path><path class="leaflet-interactive" stroke="#555" stroke-opacity="1" stroke-width="1" stroke-linecap="round" stroke-linejoin="round" stroke-dasharray="0" fill="#bd0026" fill-opacity="0.7" fill-rule="evenodd" d="M890 599L888 593L886 593L887 592L885 592L882 588L874 589L874 591L870 592L870 596L868 598L865 597L863 601L850 599L848 601L847 606L849 609L852 609L855 613L854 614L852 612L848 616L846 616L847 624L839 628L831 624L823 631L815 635L814 634L808 636L793 648L792 652L789 655L782 653L781 655L777 655L775 658L763 655L761 657L756 656L754 659L755 663L757 663L760 660L763 662L763 664L758 667L759 672L757 676L759 678L768 677L772 679L778 677L782 669L786 668L787 662L796 662L796 669L806 672L807 677L811 675L815 676L818 680L820 687L840 693L846 692L855 695L857 695L857 693L860 690L864 690L867 688L866 687L868 684L866 684L869 683L868 681L871 673L873 675L886 677L886 679L889 680L896 671L892 661L893 655L897 654L902 649L903 644L899 637L902 634L908 634L913 627L914 623L907 617L895 620L891 617L893 612L891 608L885 608L886 604L882 601z"></path><path class="leaflet-interactive" stroke="#555" stroke-opacity="1" stroke-width="1" stroke-linecap="round" stroke-linejoin="round" stroke-dasharray="0" fill="#bd0026" fill-opacity="0.7" fill-rule="evenodd" d="M606 432L604 431L597 435L594 433L590 434L584 432L579 436L580 443L584 445L582 451L574 446L571 446L571 454L564 456L571 463L565 464L566 469L571 473L571 480L575 480L578 488L583 489L587 494L598 497L604 506L604 510L611 511L615 507L617 510L620 507L637 524L643 522L648 524L651 522L664 537L674 536L676 539L679 537L688 539L692 547L697 540L701 538L709 517L698 509L696 501L689 497L684 500L683 498L667 495L662 489L656 489L653 486L648 486L643 490L639 487L638 482L641 477L636 471L641 468L637 461L627 457L617 461L611 460L610 454L605 451L606 442z"></path><path class="leaflet-interactive" stroke="#555" stroke-opacity="1" stroke-width="1" stroke-linecap="round" stroke-linejoin="round" stroke-dasharray="0" fill="#bd0026" fill-opacity="0.7" fill-rule="evenodd" d="M870 592L872 592L875 588L879 589L882 587L885 592L889 594L889 597L893 602L902 605L906 603L906 601L908 600L910 602L911 601L908 595L909 593L906 591L905 586L903 585L902 576L907 570L910 569L909 568L913 563L917 561L916 556L923 538L927 538L931 542L935 542L938 537L943 536L942 533L944 530L944 526L946 524L944 519L952 510L955 509L958 503L958 497L965 491L970 491L974 481L972 479L972 471L969 468L973 462L979 460L981 453L985 453L986 445L982 439L987 433L985 430L980 430L972 421L965 424L961 422L948 437L949 440L941 443L941 440L936 440L926 443L925 445L911 437L901 435L895 431L897 424L890 421L883 410L873 411L870 407L864 409L862 408L858 411L857 414L860 418L863 419L862 423L869 442L868 448L871 449L873 457L872 463L875 464L878 469L883 471L895 488L891 492L886 504L887 508L884 515L885 520L880 527L880 530L870 537L867 542L862 545L856 545L856 551L853 555L852 562L847 566L846 573L855 575L860 580L866 581L867 588z"></path><path class="leaflet-interactive" stroke="#555" stroke-opacity="1" stroke-width="1" stroke-linecap="round" stroke-linejoin="round" fill="#bd0026" fill-opacity="0.7" fill-rule="evenodd" d="M818 469L817 464L803 462L802 458L798 457L794 451L784 452L780 446L771 441L766 441L762 438L745 436L734 441L734 446L737 451L724 467L720 476L724 482L714 481L718 485L719 491L728 499L725 502L726 506L736 509L732 516L739 519L743 523L749 523L755 528L755 532L763 533L769 536L770 539L781 547L787 540L795 541L798 543L810 543L809 526L803 522L805 522L808 512L807 508L803 503L808 488L807 483L813 472z" stroke-dasharray="0"></path><path class="leaflet-interactive" stroke="#555" stroke-opacity="1" stroke-width="1" stroke-linecap="round" stroke-linejoin="round" stroke-dasharray="0" fill="#bd0026" fill-opacity="0.7" fill-rule="evenodd" d="M872 463L858 467L853 459L849 457L846 459L841 469L828 469L822 471L818 469L813 472L807 483L808 488L803 503L807 508L808 512L805 522L803 522L809 526L811 547L825 541L828 537L841 536L849 541L856 551L856 545L862 545L867 542L870 537L880 530L880 527L885 520L884 515L887 508L886 504L891 492L895 488L883 471L878 469L875 464z"></path><path class="leaflet-interactive" stroke="#555" stroke-opacity="1" stroke-width="1" stroke-linecap="round" stroke-linejoin="round" fill="#fd8d3c" fill-opacity="0.7" fill-rule="evenodd" d="M810 378L802 376L797 382L792 379L786 379L785 386L782 389L778 388L777 392L771 398L768 395L763 394L761 390L757 392L757 401L750 404L749 409L744 413L740 412L730 419L739 425L743 430L745 436L762 438L766 441L771 441L780 446L784 452L794 451L798 457L802 458L803 462L817 464L818 469L822 471L828 469L841 469L846 459L849 457L853 459L858 467L872 463L873 457L871 449L868 448L869 442L862 423L863 419L860 418L857 414L858 411L848 404L850 399L847 397L848 393L842 391L843 386L831 382L828 384L819 379z" stroke-dasharray="0"></path><path class="leaflet-interactive" stroke="#555" stroke-opacity="1" stroke-width="1" stroke-linecap="round" stroke-linejoin="round" fill="#fd8d3c" fill-opacity="0.7" fill-rule="evenodd" d="M810 378L809 373L813 361L812 356L814 348L809 345L803 346L805 330L801 329L799 315L805 311L805 306L795 306L789 304L791 299L784 294L781 296L777 293L773 296L767 293L769 290L762 287L759 290L751 288L743 291L741 294L735 293L731 299L733 302L726 305L716 305L711 311L706 313L706 319L710 325L710 330L705 331L705 334L701 334L699 336L702 339L698 348L698 360L696 359L678 381L679 386L674 388L675 399L679 399L687 403L688 408L683 420L686 427L689 429L690 440L707 446L715 431L720 427L722 420L730 419L740 412L744 413L749 409L750 404L757 401L757 392L761 390L763 394L768 395L771 398L777 392L778 388L782 389L785 386L786 379L792 379L797 382L802 376z" stroke-dasharray="0"></path><path class="leaflet-interactive" stroke="#555" stroke-opacity="1" stroke-width="1" stroke-linecap="round" stroke-linejoin="round" stroke-dasharray="0" fill="#bd0026" fill-opacity="0.7" fill-rule="evenodd" d="M730 419L722 420L720 427L715 431L707 446L690 440L689 429L686 427L683 420L688 408L687 403L679 399L675 399L675 401L657 405L653 411L647 410L637 413L628 409L624 411L621 409L613 408L614 418L609 426L608 432L606 432L605 451L610 454L611 460L617 461L627 457L637 461L641 468L636 471L641 477L638 482L639 487L643 490L648 486L653 486L656 489L662 489L667 495L683 498L684 500L689 497L696 501L690 493L691 485L695 482L701 484L706 491L712 481L724 482L720 476L724 467L737 451L734 446L734 441L745 436L743 430L739 425z"></path><path class="leaflet-interactive" stroke="#555" stroke-opacity="1" stroke-width="1" stroke-linecap="round" stroke-linejoin="round" stroke-dasharray="0" fill="#bd0026" fill-opacity="0.7" fill-rule="evenodd" d="M714 481L712 481L706 491L701 484L695 482L691 485L690 493L695 498L698 509L709 517L701 538L697 540L689 550L689 555L701 562L703 559L706 560L713 557L713 553L716 550L716 545L719 542L715 538L720 532L725 533L726 528L724 524L729 522L734 517L732 516L736 509L726 506L725 502L728 499L719 491L718 485z"></path><path class="leaflet-interactive" stroke="#555" stroke-opacity="1" stroke-width="1" stroke-linecap="round" stroke-linejoin="round" stroke-dasharray="0" fill="#bd0026" fill-opacity="0.7" fill-rule="evenodd" d="M734 517L729 522L724 524L726 528L725 533L720 532L715 538L719 542L716 545L716 550L713 553L713 557L706 560L703 559L701 562L697 560L697 563L692 568L682 570L674 567L667 576L675 579L681 576L682 578L689 576L699 577L702 583L706 583L710 578L711 580L717 579L723 583L725 581L734 589L741 590L746 586L755 590L758 585L764 583L763 571L765 568L765 563L774 558L768 555L768 553L763 555L758 549L770 539L769 536L763 533L755 532L755 528L749 523L743 523L739 519z"></path><path class="leaflet-interactive" stroke="#555" stroke-opacity="1" stroke-width="1" stroke-linecap="round" stroke-linejoin="round" stroke-dasharray="0" fill="#bd0026" fill-opacity="0.7" fill-rule="evenodd" d="M856 551L849 541L841 536L828 537L825 541L811 547L810 543L798 543L795 541L787 540L781 547L770 539L758 549L763 555L768 553L768 555L774 558L765 563L765 568L763 571L764 583L758 585L758 588L768 590L769 593L774 592L779 594L783 590L787 590L792 595L806 594L822 596L824 600L823 606L826 607L826 612L830 616L834 614L836 609L840 609L845 612L845 616L849 616L851 612L854 614L855 613L852 609L849 609L847 607L847 601L854 599L863 601L865 597L868 598L870 596L870 592L867 588L866 581L860 580L855 575L846 573L847 566L852 562L853 555L856 551z"></path><path class="leaflet-interactive" stroke="#555" stroke-opacity="1" stroke-width="1" stroke-linecap="round" stroke-linejoin="round" stroke-dasharray="0" fill="#bd0026" fill-opacity="0.7" fill-rule="evenodd" d="M750 678L758 675L758 667L763 664L761 660L755 663L754 657L760 657L763 655L766 657L770 656L771 658L775 658L778 654L789 655L792 652L793 648L806 637L814 634L815 635L818 632L823 631L831 624L833 624L836 628L847 624L845 612L840 609L836 609L834 614L830 616L826 612L826 607L823 606L824 600L822 596L806 594L792 595L787 590L783 590L779 594L774 592L773 600L769 606L767 614L759 615L755 619L741 617L741 623L729 619L719 623L711 620L715 628L713 632L719 630L734 632L733 641L730 644L734 647L737 647L740 650L739 655L742 654L747 661L746 664L750 666L746 668L748 670z"></path><path class="leaflet-interactive" stroke="#555" stroke-opacity="1" stroke-width="1" stroke-linecap="round" stroke-linejoin="round" stroke-dasharray="0" fill="#bd0026" fill-opacity="0.7" fill-rule="evenodd" d="M596 540L592 542L587 539L584 548L580 552L582 561L578 563L586 567L590 572L590 578L576 577L571 583L568 581L564 583L555 582L551 588L552 589L549 590L552 592L541 598L543 602L547 603L547 605L549 603L551 605L569 605L574 607L580 605L586 606L590 602L599 613L604 608L609 612L625 612L631 614L634 607L629 599L632 597L640 598L647 588L643 586L641 581L643 578L638 578L641 570L633 566L629 559L629 553L620 545L614 551L609 548L610 545L605 547L605 543L600 544z"></path><path class="leaflet-interactive" stroke="#555" stroke-opacity="1" stroke-width="1" stroke-linecap="round" stroke-linejoin="round" stroke-dasharray="0" fill="#bd0026" fill-opacity="0.7" fill-rule="evenodd" d="M358 498L355 498L347 493L343 504L339 505L340 508L330 514L325 520L319 523L317 529L313 533L315 544L318 545L315 549L340 564L350 565L369 583L372 583L384 592L391 592L391 588L399 577L416 579L416 575L418 573L426 573L429 571L438 573L440 571L440 567L438 564L440 556L438 556L436 553L432 553L421 546L420 547L413 543L409 543L408 534L402 526L393 521L390 516L384 513L380 514L380 511L376 507L370 504L368 506L364 501L362 501L359 498z"></path><path class="leaflet-interactive" stroke="#555" stroke-opacity="1" stroke-width="1" stroke-linecap="round" stroke-linejoin="round" stroke-dasharray="0" fill="#bd0026" fill-opacity="0.7" fill-rule="evenodd" d="M315 549L318 545L315 544L313 533L317 529L319 523L325 520L330 514L340 508L339 505L343 504L347 493L355 498L358 498L362 487L355 485L345 477L343 477L324 461L321 461L316 454L309 451L308 448L302 447L300 441L296 437L280 431L281 424L275 424L275 429L268 440L239 469L233 478L239 484L261 488L265 496L265 503L281 522L281 528L278 528L283 534L290 533L291 526L298 527L304 530L305 534L311 538L310 546z"></path><path class="leaflet-interactive" stroke="#555" stroke-opacity="1" stroke-width="1" stroke-linecap="round" stroke-linejoin="round" stroke-dasharray="0" fill="#bd0026" fill-opacity="0.7" fill-rule="evenodd" d="M477 528L476 524L471 524L466 517L462 517L460 513L447 513L444 511L441 513L435 511L431 514L429 511L423 509L417 514L414 513L409 521L406 532L408 534L408 542L420 547L421 546L432 553L436 553L438 556L440 556L438 564L440 571L438 573L429 571L427 573L417 573L416 575L427 591L433 590L443 595L460 610L471 616L478 624L486 629L499 627L503 628L515 623L517 624L534 620L531 613L535 613L539 609L549 610L551 608L549 603L547 605L547 603L545 603L541 599L543 596L550 592L551 593L552 592L549 590L552 589L545 583L546 578L542 574L541 575L544 569L542 567L541 568L536 562L531 560L532 556L535 553L528 552L518 548L515 544L513 544L512 541L507 538L506 535L500 535L499 532L492 535L492 533L489 534L477 528z"></path><path class="leaflet-interactive" stroke="#555" stroke-opacity="1" stroke-width="1" stroke-linecap="round" stroke-linejoin="round" stroke-dasharray="0" fill="#bd0026" fill-opacity="0.7" fill-rule="evenodd" d="M667 576L674 567L682 570L692 568L697 563L697 560L689 555L689 550L692 547L688 539L679 537L676 539L674 536L664 537L651 522L648 524L643 522L637 524L620 507L617 510L615 507L611 511L604 510L601 515L596 513L591 514L594 531L596 532L597 537L596 540L600 544L605 543L605 547L610 545L609 548L614 551L620 545L629 553L629 559L633 566L641 570L638 578L649 578L650 573L656 572L659 576z"></path><path class="leaflet-interactive" stroke="#555" stroke-opacity="1" stroke-width="1" stroke-linecap="round" stroke-linejoin="round" stroke-dasharray="0" fill="#bd0026" fill-opacity="0.7" fill-rule="evenodd" d="M625 612L609 612L604 608L599 613L590 602L586 606L580 605L574 607L569 605L551 605L551 609L549 610L540 609L535 613L531 613L534 620L534 632L538 634L538 641L542 647L539 655L541 661L539 665L574 665L578 672L593 676L617 674L621 675L626 683L629 680L626 677L628 672L627 667L629 663L624 653L629 644L627 636L628 626L625 614z"></path><path class="leaflet-interactive" stroke="#555" stroke-opacity="1" stroke-width="1" stroke-linecap="round" stroke-linejoin="round" stroke-dasharray="0" fill="#bd0026" fill-opacity="0.7" fill-rule="evenodd" d="M667 576L659 576L656 572L650 573L649 578L643 578L641 581L643 586L647 588L640 598L632 597L629 599L634 607L633 611L638 613L641 611L648 611L654 617L657 615L665 617L667 620L672 620L675 618L683 619L692 624L702 626L713 632L715 628L711 620L719 623L729 619L741 623L741 617L755 619L759 615L767 614L769 606L773 600L774 592L769 593L768 590L757 588L755 590L746 586L741 590L734 589L725 581L723 583L717 579L711 580L710 578L706 583L702 583L699 577L689 576L682 578L681 576L675 579z"></path><path class="leaflet-interactive" stroke="#555" stroke-opacity="1" stroke-width="1" stroke-linecap="round" stroke-linejoin="round" stroke-dasharray="0" fill="#bd0026" fill-opacity="0.7" fill-rule="evenodd" d="M578 488L573 491L572 497L566 503L566 506L559 510L560 514L553 519L555 522L548 526L543 526L538 520L532 519L529 524L524 523L518 526L512 534L515 536L514 544L516 544L519 548L525 551L535 553L531 557L531 559L533 562L536 562L540 566L540 568L544 570L541 575L542 574L546 578L546 585L547 584L550 588L555 582L564 583L568 581L571 583L576 577L590 578L590 572L586 567L578 563L582 561L580 552L584 548L587 539L592 542L596 540L597 537L596 532L594 531L591 514L596 513L601 515L604 510L604 506L598 497L587 494L583 489z"></path><path class="leaflet-interactive" stroke="#555" stroke-opacity="1" stroke-width="1" stroke-linecap="round" stroke-linejoin="round" stroke-dasharray="0" fill="#bd0026" fill-opacity="0.7" fill-rule="evenodd" d="M578 488L575 480L571 480L571 473L566 469L565 464L556 464L548 459L540 457L540 454L533 458L530 455L524 461L504 454L502 448L500 447L494 449L494 452L488 455L481 454L477 467L473 470L473 474L469 477L471 483L474 486L474 490L471 492L474 503L478 509L482 511L483 515L479 517L477 528L489 534L492 533L492 535L495 535L497 532L499 532L500 535L506 535L507 538L514 544L515 536L512 534L518 526L524 523L529 524L532 519L538 520L543 526L548 526L555 522L553 519L560 514L559 510L566 506L566 503L572 497L573 491z"></path><path class="leaflet-interactive" stroke="#555" stroke-opacity="1" stroke-width="1" stroke-linecap="round" stroke-linejoin="round" stroke-dasharray="0" fill="#bd0026" fill-opacity="0.7" fill-rule="evenodd" d="M702 626L692 624L683 619L675 618L672 620L667 620L665 617L657 615L654 617L648 611L641 611L638 613L633 611L631 614L625 612L628 626L627 636L629 644L624 653L629 663L627 667L628 672L626 677L629 680L626 683L636 690L636 696L642 700L648 700L652 698L657 691L657 688L660 686L661 682L657 678L660 674L657 670L699 672L694 661L695 650L692 650L691 641L695 640L696 636L701 632L702 627z"></path><path class="leaflet-interactive" stroke="#555" stroke-opacity="1" stroke-width="1" stroke-linecap="round" stroke-linejoin="round" stroke-dasharray="0" fill="#fd8d3c" fill-opacity="0.7" fill-rule="evenodd" d="M531 384L527 386L523 383L516 392L518 395L507 404L508 409L514 409L517 420L514 424L507 429L500 426L494 426L493 430L507 437L510 436L510 441L505 443L501 447L504 454L524 461L530 455L533 458L540 454L540 457L548 459L556 464L571 463L564 456L571 454L571 446L574 446L582 451L584 445L580 443L579 436L584 432L590 434L594 433L597 435L604 431L608 432L609 426L614 418L613 409L608 409L601 401L586 396L583 397L576 392L563 390L558 392L547 392L544 395L540 388L533 386z"></path><path class="leaflet-interactive" stroke="#555" stroke-opacity="1" stroke-width="1" stroke-linecap="round" stroke-linejoin="round" stroke-dasharray="0" fill="#bd0026" fill-opacity="0.7" fill-rule="evenodd" d="M713 632L711 632L703 626L701 632L696 636L695 640L691 641L692 650L695 650L694 661L698 671L738 692L744 697L749 694L751 688L746 688L745 680L750 678L748 670L746 668L750 666L746 664L747 661L742 654L739 655L740 650L737 647L734 647L730 644L733 641L734 632L719 630z"></path><path class="leaflet-interactive" stroke="#555" stroke-opacity="1" stroke-width="1" stroke-linecap="round" stroke-linejoin="round" stroke-dasharray="0" fill="#bd0026" fill-opacity="0.7" fill-rule="evenodd" d="M390 360L385 359L382 361L377 361L372 359L367 353L362 352L359 354L353 352L348 345L340 347L338 346L334 349L325 345L328 327L315 337L308 340L298 352L298 357L304 368L308 370L311 376L315 379L324 398L328 401L328 406L322 408L325 413L332 416L339 423L348 423L350 426L364 432L365 428L370 422L372 413L375 410L383 408L383 405L389 401L385 395L383 387L385 376L391 371z"></path><path class="leaflet-interactive" stroke="#555" stroke-opacity="1" stroke-width="1" stroke-linecap="round" stroke-linejoin="round" stroke-dasharray="0" fill="#fd8d3c" fill-opacity="0.7" fill-rule="evenodd" d="M510 358L521 363L526 363L532 375L531 384L533 386L540 388L544 395L547 392L558 392L563 390L576 392L583 397L586 396L601 401L608 409L621 409L624 411L628 409L637 413L647 410L653 411L657 405L675 401L674 388L679 386L678 381L696 359L698 360L698 348L702 339L699 336L701 334L705 334L705 331L710 330L710 325L706 319L702 323L698 318L694 319L691 313L684 313L680 308L680 303L674 297L671 298L666 291L668 287L666 283L662 281L662 276L664 272L662 268L656 267L649 259L650 253L644 249L638 252L633 242L633 239L638 238L634 235L629 235L626 233L626 229L623 228L619 232L616 231L617 227L599 228L599 225L595 224L593 219L591 220L588 215L579 217L576 215L577 211L575 209L566 210L561 213L555 212L555 220L549 225L554 239L548 247L538 250L536 256L538 258L535 266L530 267L530 270L522 275L518 273L518 267L506 270L504 276L512 288L512 293L506 296L505 300L501 304L505 312L511 316L505 321L498 323L486 323L484 327L481 327L476 352L485 358L489 357L494 352L502 353z"></path><path class="leaflet-interactive" stroke="#555" stroke-opacity="1" stroke-width="1" stroke-linecap="round" stroke-linejoin="round" stroke-dasharray="0" fill="#fd8d3c" fill-opacity="0.7" fill-rule="evenodd" d="M495 158L491 152L474 141L471 144L465 137L460 139L456 134L449 131L447 133L435 131L439 123L436 122L441 118L442 114L438 113L439 107L434 107L429 103L428 99L423 96L426 92L425 88L428 83L425 74L420 71L417 72L415 76L407 74L404 79L394 73L383 71L381 67L373 68L370 65L364 66L356 63L355 60L335 52L336 57L333 60L325 56L323 61L324 68L311 66L303 58L297 58L296 63L301 66L299 68L295 68L295 78L300 82L296 85L298 87L297 91L294 94L295 103L286 109L283 114L278 113L270 115L275 123L275 132L272 137L274 139L292 145L296 142L305 146L308 152L305 157L307 163L306 167L308 170L315 169L317 163L323 163L334 158L340 157L345 159L348 157L353 166L366 165L368 167L367 178L365 180L365 187L357 190L355 203L353 204L350 214L350 221L357 229L363 229L367 225L378 226L382 223L385 216L388 217L395 214L402 209L411 199L416 200L415 203L423 213L425 219L423 223L447 217L447 210L452 209L456 211L466 206L476 210L480 203L477 196L480 195L479 186L482 187L485 183L483 181L484 176L489 175L486 170L491 166L490 164z"></path><path class="leaflet-interactive" stroke="#555" stroke-opacity="1" stroke-width="1" stroke-linecap="round" stroke-linejoin="round" stroke-dasharray="0" fill="#bd0026" fill-opacity="0.7" fill-rule="evenodd" d="M480 336L469 331L463 333L455 329L453 332L445 336L438 343L436 341L426 354L427 357L419 362L414 360L412 353L407 350L397 359L390 360L391 371L385 376L383 387L385 395L389 401L383 405L383 408L375 410L372 413L379 420L384 430L415 430L415 432L420 435L430 433L431 436L438 435L440 425L446 421L450 415L454 419L457 410L456 404L458 400L468 400L471 398L475 390L483 387L489 382L495 381L497 378L496 372L498 366L504 359L509 357L510 358L502 353L494 352L489 357L485 358L476 352L478 347z"></path><path class="leaflet-interactive" stroke="#555" stroke-opacity="1" stroke-width="1" stroke-linecap="round" stroke-linejoin="round" stroke-dasharray="0" fill="#bd0026" fill-opacity="0.7" fill-rule="evenodd" d="M506 270L498 268L495 253L483 263L479 259L475 251L471 253L464 250L461 251L458 263L453 263L445 266L443 271L438 271L430 264L428 258L424 260L420 255L412 255L407 259L401 257L398 263L392 264L392 287L388 289L383 299L377 300L377 305L381 309L387 311L387 323L391 323L396 326L401 333L408 337L407 350L412 353L414 360L419 362L427 357L426 354L436 341L438 343L445 336L453 332L455 329L463 333L469 331L480 336L481 327L484 327L486 323L498 323L505 321L511 316L505 312L501 304L505 300L506 296L512 293L512 288L504 276z"></path><path class="leaflet-interactive" stroke="#555" stroke-opacity="1" stroke-width="1" stroke-linecap="round" stroke-linejoin="round" stroke-dasharray="0" fill="#bd0026" fill-opacity="0.7" fill-rule="evenodd" d="M392 264L384 263L380 260L370 261L366 275L363 274L359 279L357 286L345 290L341 289L340 282L335 278L324 281L318 290L315 290L311 297L308 299L313 302L310 314L313 324L318 324L320 327L326 329L328 327L325 345L334 349L338 346L340 347L348 345L353 352L359 354L362 352L367 353L372 359L377 361L382 361L385 359L397 359L407 350L408 337L401 333L396 326L391 323L387 323L387 311L381 309L377 305L377 300L383 299L388 289L392 287L391 275z"></path><path class="leaflet-interactive" stroke="#555" stroke-opacity="1" stroke-width="1" stroke-linecap="round" stroke-linejoin="round" stroke-dasharray="0" fill="#fd8d3c" fill-opacity="0.7" fill-rule="evenodd" d="M555 212L554 205L550 206L544 203L540 195L531 197L531 190L534 190L539 185L537 181L532 177L521 181L517 181L521 173L515 171L511 163L508 161L507 156L501 153L495 158L490 164L491 166L486 170L489 175L484 176L483 181L485 183L482 187L479 186L480 195L477 196L480 203L476 210L466 206L456 211L452 209L447 210L447 217L423 223L425 219L423 213L415 203L416 200L411 199L402 209L395 214L388 217L385 216L382 223L378 226L367 225L363 229L366 231L368 239L365 250L369 256L370 261L380 260L384 263L392 264L398 263L401 257L407 259L412 255L420 255L424 260L428 258L430 264L438 271L443 271L445 266L453 263L458 263L461 251L464 250L471 253L475 251L479 259L483 263L495 253L498 268L506 270L518 267L518 273L522 275L530 270L530 267L535 266L538 258L536 256L538 250L548 247L554 239L549 225L555 220z"></path><path class="leaflet-interactive" stroke="#555" stroke-opacity="1" stroke-width="1" stroke-linecap="round" stroke-linejoin="round" stroke-dasharray="0" fill="#bd0026" fill-opacity="0.7" fill-rule="evenodd" d="M482 511L478 509L474 503L471 492L474 490L474 486L471 483L469 477L473 474L473 470L477 467L480 461L481 453L476 454L473 446L466 441L459 439L455 440L438 434L436 436L432 436L430 433L420 435L414 430L410 430L410 436L406 436L407 440L405 441L404 444L410 456L408 458L409 460L406 464L407 465L403 467L401 471L399 470L397 474L401 481L403 481L400 483L401 488L391 493L375 484L366 482L362 484L363 485L358 496L358 498L365 502L367 506L370 504L374 506L380 511L379 514L383 513L388 515L391 520L402 526L406 531L409 521L414 513L417 514L423 509L429 511L431 514L435 511L441 513L444 511L447 513L460 513L462 517L466 517L471 524L476 524L477 528L479 517L483 515z"></path><path class="leaflet-interactive" stroke="#555" stroke-opacity="1" stroke-width="1" stroke-linecap="round" stroke-linejoin="round" stroke-dasharray="0" fill="#bd0026" fill-opacity="0.7" fill-rule="evenodd" d="M322 408L318 408L320 405L316 401L318 397L313 393L311 388L307 386L307 378L301 374L286 379L284 375L278 371L270 376L260 375L253 372L245 363L231 360L226 366L222 365L219 368L227 372L233 382L236 382L241 388L245 387L249 382L251 388L260 394L258 390L259 384L267 395L264 398L267 401L270 408L269 412L272 412L271 417L275 424L281 424L280 431L296 437L300 441L302 447L308 448L309 451L316 454L321 461L324 461L343 477L345 477L355 485L362 486L363 483L370 482L372 484L376 484L381 488L386 490L387 489L392 493L399 490L401 487L400 483L403 481L401 481L401 479L398 476L398 470L401 471L402 468L407 465L406 464L409 460L408 458L410 456L404 445L407 440L405 436L409 436L409 432L411 430L384 430L379 420L372 413L370 422L365 428L364 432L350 426L348 423L339 423L332 416L325 413z"></path><path class="leaflet-interactive" stroke="#555" stroke-opacity="1" stroke-width="1" stroke-linecap="round" stroke-linejoin="round" stroke-dasharray="0" fill="#bd0026" fill-opacity="0.7" fill-rule="evenodd" d="M455 440L467 441L473 446L474 453L488 455L494 452L494 449L510 441L510 436L507 437L493 430L494 426L500 426L507 429L517 420L514 409L508 409L507 404L518 395L516 392L523 383L527 386L531 384L532 375L526 363L521 363L509 357L504 359L498 366L496 372L497 378L495 381L489 382L483 387L475 390L471 398L468 400L458 400L456 404L457 410L454 419L450 415L446 421L440 425L438 434L448 437z"></path><path class="leaflet-interactive" stroke="#555" stroke-opacity="1" stroke-width="1" stroke-linecap="round" stroke-linejoin="round" stroke-dasharray="0" fill="#bd0026" fill-opacity="0.7" fill-rule="evenodd" d="M308 299L303 296L299 298L293 293L287 296L279 288L276 291L272 292L268 283L259 280L254 275L251 276L247 292L245 293L240 304L244 307L241 311L234 314L229 314L227 316L241 335L249 349L249 357L242 363L245 363L253 372L260 375L270 376L278 371L284 375L286 379L301 374L307 378L307 386L311 388L313 393L318 397L316 401L320 405L318 408L322 408L328 406L328 401L324 398L315 379L311 376L308 370L304 368L298 357L298 352L308 340L315 337L326 329L320 327L318 324L313 324L310 314L313 302z"></path><path class="leaflet-interactive" stroke="#555" stroke-opacity="1" stroke-width="1" stroke-linecap="round" stroke-linejoin="round" stroke-dasharray="0" fill="#bd0026" fill-opacity="0.7" fill-rule="evenodd" d="M185 212L178 208L169 210L165 209L163 212L145 212L144 214L133 221L131 225L122 225L115 229L110 236L110 239L103 240L106 245L103 249L98 251L98 255L93 257L96 261L90 261L85 263L85 270L91 274L90 280L94 288L100 291L107 283L114 280L119 274L137 274L140 273L141 268L145 270L146 273L153 273L159 276L164 272L162 268L165 267L176 272L180 272L179 275L184 279L189 280L193 276L196 277L196 271L200 270L206 264L202 263L200 259L196 258L189 248L184 250L183 247L177 245L177 241L181 241L185 222L179 220z"></path><path class="leaflet-interactive" stroke="#555" stroke-opacity="1" stroke-width="1" stroke-linecap="round" stroke-linejoin="round" stroke-dasharray="0" fill="#bd0026" fill-opacity="0.7" fill-rule="evenodd" d="M239 135L235 137L225 151L227 155L223 163L227 166L230 171L230 180L235 183L233 197L229 200L220 201L218 205L212 202L198 208L194 212L185 212L179 220L185 222L181 241L177 241L177 245L183 247L184 250L189 248L196 258L200 259L202 263L206 264L209 267L212 273L220 271L224 268L249 274L252 273L254 270L257 273L259 273L268 269L270 265L279 260L276 256L284 250L290 241L295 239L296 234L299 231L299 223L317 214L318 207L315 201L316 198L321 200L325 195L322 188L324 186L325 178L321 172L315 169L308 170L306 167L307 163L305 157L308 152L305 146L296 142L292 145L274 139L272 137L266 140L267 144L262 145L260 142L250 144L245 142z"></path><path class="leaflet-interactive" stroke="#555" stroke-opacity="1" stroke-width="1" stroke-linecap="round" stroke-linejoin="round" stroke-dasharray="0" fill="#bd0026" fill-opacity="0.7" fill-rule="evenodd" d="M308 299L311 297L315 290L318 290L324 281L335 278L340 282L341 289L345 290L357 286L359 279L363 274L366 275L370 261L369 256L365 250L368 239L366 231L363 229L357 229L350 221L350 214L353 204L355 203L357 190L365 187L365 180L367 178L368 167L366 165L353 166L348 157L345 159L340 157L334 158L323 163L317 163L315 169L321 172L325 178L324 186L322 188L325 195L321 200L316 198L315 201L318 207L317 214L299 223L299 231L296 234L295 239L290 241L284 250L276 256L279 260L270 265L268 269L254 275L259 280L268 283L272 292L276 291L279 288L287 296L293 293L299 298L303 296z"></path><path class="leaflet-interactive" stroke="#555" stroke-opacity="1" stroke-width="1" stroke-linecap="round" stroke-linejoin="round" stroke-dasharray="0" fill="#bd0026" fill-opacity="0.7" fill-rule="evenodd" d="M184 279L179 275L180 272L176 272L165 267L162 268L164 272L159 276L153 273L146 273L145 270L141 268L140 273L137 274L119 274L114 280L107 283L100 291L98 290L94 307L95 313L93 315L86 310L84 313L88 317L90 326L83 331L74 328L75 338L82 346L104 344L117 350L124 348L128 352L126 356L132 357L138 353L138 349L143 342L137 337L136 334L144 331L144 326L148 325L148 322L153 318L155 319L169 316L169 307L175 304L178 300L176 298L175 293L181 293L182 290L178 284z"></path><path class="leaflet-interactive" stroke="#555" stroke-opacity="1" stroke-width="1" stroke-linecap="round" stroke-linejoin="round" stroke-dasharray="0" fill="#bd0026" fill-opacity="0.7" fill-rule="evenodd" d="M151 47L160 52L167 59L170 58L175 62L184 72L184 74L187 75L188 78L192 80L195 79L201 83L204 82L210 87L209 89L211 91L213 89L224 90L224 92L229 95L228 100L231 103L229 105L238 116L238 126L241 125L243 129L241 133L237 137L235 137L235 139L228 147L226 151L226 157L223 160L223 162L230 171L230 179L234 183L236 183L234 191L235 194L234 197L228 201L220 201L218 205L211 202L200 207L196 211L188 213L185 212L183 209L178 208L170 210L166 208L165 211L161 213L149 211L135 219L131 225L124 225L118 228L117 227L117 229L115 229L115 225L118 224L116 222L117 219L115 219L111 215L107 199L111 199L111 197L113 197L115 193L114 192L117 189L131 189L131 187L140 178L142 178L141 177L145 169L146 160L151 155L154 154L158 156L164 156L165 153L169 151L169 149L171 149L172 146L175 147L178 144L178 138L181 135L183 135L184 132L191 125L194 126L194 122L199 121L201 119L199 111L195 108L192 104L193 103L191 103L191 101L184 94L184 92L179 87L179 83L171 77L163 75L161 73L160 66L157 65L154 54L152 52L145 53L139 59L137 57L137 55L144 49L151 47z"></path><path class="leaflet-interactive" stroke="#555" stroke-opacity="1" stroke-width="1" stroke-linecap="round" stroke-linejoin="round" stroke-dasharray="0" fill="#bd0026" fill-opacity="0.7" fill-rule="evenodd" d="M257 273L254 270L252 273L249 274L224 268L220 271L212 273L206 264L200 270L196 271L196 277L193 276L189 280L184 279L178 284L182 290L181 293L175 293L176 298L178 300L175 304L169 307L169 316L155 319L153 318L148 322L148 325L144 326L144 331L136 334L137 337L149 346L153 343L158 350L169 354L175 353L180 356L179 358L186 361L187 367L191 370L195 361L201 363L201 367L206 370L209 368L219 368L222 365L226 366L231 360L242 363L249 357L249 349L241 335L227 316L229 314L234 314L241 311L244 307L240 304L245 293L247 292L251 276L254 275z"></path><path class="leaflet-interactive" stroke="#555" stroke-opacity="1" stroke-width="1" stroke-linecap="round" stroke-linejoin="round" stroke-dasharray="0" fill="#bd0026" fill-opacity="0.7" fill-rule="evenodd" d="M219 368L209 368L206 370L201 367L201 363L195 361L191 370L187 367L186 361L179 358L180 356L175 353L169 354L158 350L153 343L149 346L143 342L138 349L138 353L132 357L129 356L130 359L126 368L133 377L131 386L134 390L135 395L141 402L138 404L141 409L139 410L142 413L139 415L141 420L148 422L146 426L151 428L152 431L159 432L162 430L164 438L167 438L166 441L171 445L175 444L180 446L181 449L184 450L183 453L189 455L198 462L200 457L206 460L205 462L207 468L219 469L216 471L219 473L223 469L226 470L226 477L235 481L233 478L239 469L268 440L275 429L275 424L271 417L272 412L269 412L270 408L267 401L264 398L267 395L259 384L258 390L260 394L251 388L249 382L245 387L241 388L236 382L233 382L227 372z"></path><path class="leaflet-interactive" stroke="#555" stroke-opacity="1" stroke-width="1" stroke-linecap="round" stroke-linejoin="round" stroke-dasharray="0" fill="#bd0026" fill-opacity="0.7" fill-rule="evenodd" d="M129 356L126 356L128 352L124 348L117 350L104 344L82 346L75 338L74 328L67 334L64 343L62 359L59 359L51 373L52 390L54 392L62 391L80 407L86 406L89 409L87 412L91 416L98 418L100 425L109 433L116 431L124 434L126 442L128 442L136 449L132 425L141 420L139 415L142 413L139 410L141 409L138 404L141 402L135 395L134 390L131 386L133 377L126 368L130 359z"></path><path class="leaflet-interactive" stroke="#003893" stroke-opacity="1" stroke-width="2" stroke-linecap="round" stroke-linejoin="round" stroke-dasharray="0" fill="none" fill-opacity="0" fill-rule="evenodd" d="M1297 872L1303 863L1309 861L1313 856L1313 849L1311 845L1317 835L1316 827L1313 830L1310 823L1304 822L1301 819L1301 816L1298 818L1299 821L1287 831L1286 828L1283 826L1281 828L1278 827L1271 830L1270 832L1270 830L1267 828L1268 827L1261 828L1258 832L1254 829L1252 831L1244 831L1242 829L1239 829L1237 821L1234 819L1238 812L1236 813L1236 811L1229 811L1234 803L1232 801L1227 802L1227 800L1226 801L1226 799L1220 794L1219 791L1216 791L1208 787L1202 787L1203 788L1201 789L1200 794L1186 791L1182 792L1178 796L1174 792L1169 791L1166 788L1165 789L1161 784L1161 782L1173 791L1174 788L1180 785L1184 778L1193 775L1196 776L1199 773L1201 767L1202 762L1196 754L1199 748L1196 746L1193 748L1189 747L1192 746L1195 739L1198 740L1200 738L1204 731L1201 728L1200 729L1195 726L1195 721L1191 721L1184 718L1181 715L1175 720L1170 717L1172 713L1177 709L1172 701L1174 692L1173 690L1181 675L1185 673L1195 661L1198 660L1200 653L1209 647L1212 643L1222 642L1231 630L1231 624L1233 623L1235 615L1237 613L1235 610L1236 603L1231 601L1234 592L1234 581L1233 578L1227 574L1226 566L1227 561L1230 557L1230 553L1234 551L1236 548L1236 540L1243 542L1245 548L1253 546L1253 543L1258 540L1267 541L1272 548L1270 549L1269 555L1274 555L1277 559L1279 558L1284 560L1288 557L1291 558L1293 562L1300 565L1306 572L1317 572L1323 574L1323 576L1329 580L1331 587L1334 588L1335 595L1338 597L1341 596L1346 600L1356 600L1359 595L1362 594L1370 595L1370 597L1373 599L1381 598L1381 596L1389 592L1391 592L1394 595L1388 596L1397 599L1404 594L1414 594L1416 590L1422 594L1422 600L1426 602L1430 599L1430 597L1435 596L1437 598L1436 603L1440 601L1447 603L1449 601L1448 600L1457 590L1456 588L1458 584L1463 579L1465 580L1465 576L1467 573L1471 574L1470 578L1474 581L1488 581L1493 586L1500 584L1502 582L1508 586L1511 584L1513 585L1514 590L1518 590L1520 587L1522 587L1529 592L1533 593L1534 596L1528 600L1531 602L1533 606L1530 609L1529 615L1525 617L1524 630L1518 638L1518 643L1512 647L1512 652L1509 655L1509 660L1507 662L1508 663L1505 666L1505 670L1511 680L1507 682L1505 685L1505 694L1508 696L1509 699L1504 706L1505 708L1502 712L1503 717L1500 720L1501 721L1499 724L1500 733L1497 741L1495 741L1495 745L1501 751L1500 754L1504 761L1512 762L1513 767L1515 767L1518 771L1522 771L1519 774L1519 778L1523 784L1523 790L1527 793L1529 797L1527 801L1529 802L1528 803L1531 813L1531 823L1527 829L1526 843L1522 846L1520 852L1521 855L1517 855L1518 857L1515 863L1516 866L1513 868L1516 872L1516 875L1514 877L1515 880L1510 888L1508 888L1502 894L1503 897L1498 898L1495 896L1495 892L1484 887L1484 885L1482 884L1483 881L1478 880L1480 879L1477 873L1472 877L1472 880L1469 883L1466 882L1464 878L1459 876L1456 880L1456 886L1454 888L1452 889L1451 887L1449 887L1448 889L1446 888L1446 886L1442 885L1441 883L1438 883L1438 887L1433 889L1434 892L1426 892L1425 894L1422 894L1422 892L1409 884L1400 882L1393 886L1386 886L1381 890L1379 896L1380 898L1377 901L1372 897L1364 896L1362 888L1357 888L1355 890L1349 887L1349 889L1344 890L1336 884L1332 880L1328 861L1328 854L1323 852L1323 856L1318 863L1302 867L1302 872z"></path><path class="leaflet-interactive" stroke="#003893" stroke-opacity="1" stroke-width="2" stroke-linecap="round" stroke-linejoin="round" stroke-dasharray="0" fill="none" fill-opacity="0" fill-rule="evenodd" d="M872 673L874 675L886 677L887 680L899 680L901 677L905 679L910 678L917 683L922 683L924 687L927 686L929 689L930 688L933 691L943 695L950 693L952 696L956 694L959 695L961 693L967 694L968 700L972 703L977 712L984 716L983 717L994 717L997 718L999 722L1004 720L1014 723L1016 725L1022 725L1023 728L1033 730L1033 734L1036 735L1042 732L1040 736L1042 739L1051 738L1055 740L1066 740L1078 730L1081 730L1083 728L1097 735L1103 735L1103 738L1108 742L1112 738L1117 742L1122 743L1121 746L1127 753L1127 757L1131 763L1150 764L1159 769L1164 770L1174 778L1176 778L1180 785L1174 788L1173 791L1161 782L1161 784L1165 789L1166 788L1169 791L1174 792L1178 796L1185 791L1199 794L1203 788L1202 787L1207 787L1215 791L1220 791L1221 795L1226 799L1226 801L1232 801L1234 803L1234 806L1229 811L1233 813L1234 811L1236 811L1236 813L1238 813L1234 820L1236 821L1240 830L1253 831L1254 828L1257 832L1262 828L1267 827L1270 830L1270 832L1273 829L1278 827L1281 828L1283 826L1286 828L1287 831L1299 821L1298 818L1300 816L1305 823L1310 823L1313 830L1316 827L1317 829L1317 835L1311 845L1313 848L1313 856L1301 865L1300 869L1295 873L1296 878L1289 879L1286 882L1272 878L1272 880L1267 886L1264 883L1261 883L1259 881L1260 880L1249 877L1247 876L1247 874L1237 871L1231 862L1223 861L1216 856L1205 853L1205 851L1195 848L1195 846L1179 847L1174 852L1172 852L1170 850L1169 851L1167 847L1164 846L1159 848L1158 844L1155 844L1145 838L1138 836L1135 837L1135 839L1128 838L1124 841L1125 843L1122 847L1120 846L1120 848L1117 848L1109 855L1105 856L1107 852L1106 848L1102 847L1102 849L1100 849L1097 847L1097 845L1091 844L1084 839L1084 810L1079 802L1069 798L1066 794L1064 794L1058 799L1056 796L1054 801L1050 801L1045 806L1043 805L1041 808L1038 808L1038 810L1033 813L1030 811L1025 811L1019 817L1015 817L1012 821L1004 818L989 817L986 811L983 809L986 801L985 795L969 794L966 795L966 798L956 798L956 795L961 791L952 790L949 788L951 788L951 786L945 784L947 781L944 776L938 774L931 774L924 770L924 766L920 764L916 765L913 768L910 764L907 767L886 758L886 754L892 747L891 746L894 736L892 734L892 730L894 721L882 699L857 695L857 693L860 690L866 689L868 684L866 684L869 683L868 681L871 673z"></path><path class="leaflet-interactive" stroke="#003893" stroke-opacity="1" stroke-width="2" stroke-linecap="round" stroke-linejoin="round" stroke-dasharray="0" fill="none" fill-opacity="0" fill-rule="evenodd" d="M1227 572L1227 574L1230 575L1234 581L1234 591L1231 601L1236 604L1235 610L1237 613L1231 625L1231 631L1229 635L1226 635L1223 642L1212 643L1208 648L1200 653L1198 660L1195 661L1189 669L1180 676L1173 690L1174 691L1172 700L1176 705L1177 709L1171 714L1171 718L1175 720L1180 715L1190 721L1195 721L1196 727L1200 729L1201 728L1203 731L1200 737L1201 738L1198 740L1195 738L1192 746L1189 746L1192 748L1195 746L1198 748L1196 754L1202 762L1199 773L1196 776L1193 775L1184 778L1184 780L1180 784L1179 781L1166 771L1159 769L1157 767L1150 764L1131 763L1127 757L1127 753L1121 746L1122 744L1112 738L1108 742L1103 738L1104 735L1102 734L1098 735L1083 728L1081 730L1077 730L1073 735L1065 740L1055 740L1052 738L1042 739L1040 737L1042 733L1038 735L1033 734L1033 730L1023 728L1022 725L1016 725L1014 723L1004 720L999 722L997 718L985 718L978 714L977 710L970 703L967 695L965 694L961 693L959 695L956 694L954 696L952 696L951 693L946 695L943 695L942 693L937 694L935 691L933 691L930 688L929 689L929 687L924 687L922 683L916 683L914 679L905 679L901 677L900 680L887 680L886 677L874 675L872 673L870 674L870 678L868 681L869 683L866 683L868 685L866 686L867 689L860 690L857 693L857 695L854 695L850 694L849 692L840 693L837 691L834 692L823 688L822 689L819 686L819 682L814 675L808 678L806 674L807 673L805 671L801 671L795 667L796 662L787 662L786 668L780 672L778 677L773 678L774 679L767 677L760 678L757 676L759 673L758 667L761 666L763 662L761 660L755 663L754 657L761 657L763 655L766 657L770 656L771 658L775 658L778 654L790 655L793 648L806 637L814 634L815 635L818 632L827 628L831 624L833 624L836 628L847 624L846 616L848 616L851 612L854 614L855 613L852 609L847 607L847 601L855 599L863 601L864 598L868 598L870 596L870 592L872 592L875 588L879 589L882 587L885 592L889 594L891 601L898 604L900 603L902 605L906 603L906 601L908 600L910 602L910 597L908 595L909 593L906 591L905 586L902 583L902 576L907 570L910 569L909 568L913 563L917 561L916 555L918 553L923 538L927 538L931 542L935 542L938 537L943 536L942 533L944 530L944 526L946 524L944 519L952 510L955 509L958 503L958 497L965 491L970 491L973 494L981 494L984 496L987 493L989 493L998 502L1001 502L1000 503L1007 503L1013 500L1015 504L1019 505L1026 499L1027 495L1034 493L1044 494L1050 498L1060 500L1059 501L1061 510L1064 509L1071 500L1070 498L1072 491L1075 491L1075 485L1077 483L1080 483L1084 493L1083 494L1085 496L1084 502L1087 513L1092 518L1092 520L1096 522L1099 521L1102 525L1104 525L1109 533L1109 537L1115 541L1115 552L1129 564L1123 575L1125 575L1131 580L1145 584L1146 581L1156 576L1152 572L1152 566L1147 559L1149 557L1150 550L1148 544L1154 544L1158 538L1165 533L1164 528L1166 527L1169 531L1169 535L1173 539L1173 542L1171 543L1170 547L1174 556L1173 563L1175 568L1185 567L1191 574L1194 570L1196 576L1202 576L1208 582L1213 582L1218 578L1218 574L1225 572z"></path><path class="leaflet-interactive" stroke="#003893" stroke-opacity="1" stroke-width="2" stroke-linecap="round" stroke-linejoin="round" stroke-dasharray="0" fill="none" fill-opacity="0" fill-rule="evenodd" d="M970 491L965 491L958 497L959 498L957 500L958 502L956 509L952 510L950 513L949 512L947 516L944 518L946 523L942 533L943 536L936 539L937 540L935 542L931 542L926 538L922 539L916 555L917 561L915 563L914 562L912 566L909 568L910 569L903 574L902 582L910 597L910 602L908 600L902 605L900 603L899 604L893 602L890 600L889 594L886 593L887 592L885 592L882 588L874 589L874 591L870 592L870 596L868 598L864 597L863 601L850 599L848 601L847 606L848 608L852 609L855 613L854 614L852 612L848 616L846 616L847 624L839 628L831 624L823 631L815 635L814 634L808 636L793 648L792 652L788 655L782 653L781 655L777 655L775 658L763 655L759 657L756 656L754 659L755 663L757 663L760 660L763 662L763 664L758 667L759 673L757 676L750 678L746 668L750 666L746 662L747 659L741 653L740 656L738 653L740 651L739 648L731 644L735 634L734 632L727 631L726 633L724 631L719 630L716 633L713 632L715 628L712 625L711 621L717 621L719 623L723 620L729 619L734 622L741 623L741 617L751 617L755 619L760 615L766 615L768 614L769 607L774 599L772 596L774 593L773 591L773 593L770 593L768 592L768 590L765 591L763 589L760 590L758 588L755 590L749 586L744 587L742 589L742 587L739 590L737 588L733 589L725 581L725 583L722 583L717 579L711 580L709 578L704 584L700 579L701 578L699 577L696 579L691 577L691 575L685 578L683 575L682 578L679 575L679 577L676 577L675 579L671 577L668 578L668 575L674 567L682 570L691 568L697 563L697 560L692 556L689 556L689 550L692 547L688 539L680 537L675 539L673 538L674 536L664 537L651 522L648 524L644 524L642 522L638 524L631 517L629 517L625 511L620 507L617 510L615 507L611 511L605 510L604 506L601 501L599 501L598 497L587 494L586 490L578 488L578 483L575 480L571 480L571 473L565 468L565 464L569 465L571 463L564 456L568 456L571 454L571 446L574 446L582 451L583 450L584 445L578 440L579 436L581 436L582 433L596 433L597 435L602 432L607 432L609 428L608 424L613 423L613 408L621 409L624 411L628 409L634 413L638 413L646 410L652 411L655 409L657 405L668 404L671 401L674 401L676 397L674 394L674 388L678 388L678 380L687 371L688 367L690 367L693 364L694 359L697 360L699 358L698 349L699 344L702 343L702 339L699 336L703 333L704 334L706 330L710 330L710 326L707 323L708 320L706 319L706 314L714 309L716 305L725 306L727 304L731 304L733 302L731 299L735 293L741 294L743 291L751 288L758 290L764 287L769 291L767 292L768 294L773 296L777 293L781 296L783 296L784 294L790 297L790 305L805 306L805 310L803 313L802 312L799 315L799 323L800 328L805 332L803 338L803 346L811 345L815 351L813 354L813 361L809 372L810 378L816 377L822 382L828 384L830 384L831 382L834 385L837 384L842 386L842 391L848 393L847 397L850 399L848 403L858 411L860 409L868 409L870 407L873 411L883 410L887 414L887 418L889 418L890 421L896 424L896 432L899 432L901 435L908 436L925 445L927 442L928 443L933 440L940 440L941 443L946 442L949 440L948 437L952 433L952 431L954 431L962 422L967 424L971 421L974 422L980 430L983 429L984 432L987 433L983 439L985 445L985 452L981 453L979 460L977 462L973 462L969 468L969 470L972 471L972 479L974 481L971 491z"></path><path class="leaflet-interactive" stroke="#003893" stroke-opacity="1" stroke-width="2" stroke-linecap="round" stroke-linejoin="round" stroke-dasharray="0" fill="none" fill-opacity="0" fill-rule="evenodd" d="M527 386L531 384L535 387L539 387L544 396L548 392L551 393L553 391L578 391L584 397L587 396L590 399L598 401L601 400L608 409L613 408L615 418L613 420L614 421L611 424L609 424L610 427L608 431L598 435L596 433L582 433L582 435L579 436L578 439L580 443L584 444L584 448L582 450L572 446L571 455L565 457L571 464L565 464L565 466L566 469L570 471L572 480L577 481L579 489L586 490L587 493L590 494L590 496L596 496L601 501L601 503L603 503L604 506L605 505L604 510L611 511L615 507L618 510L621 507L630 516L629 517L631 517L634 520L634 522L636 522L637 524L643 522L645 524L649 524L651 522L662 533L664 537L673 536L673 538L676 540L679 537L688 539L690 543L689 544L692 545L692 547L689 550L689 556L693 556L693 558L694 557L697 560L697 564L694 565L694 567L683 570L681 570L678 567L674 567L673 570L667 576L669 578L671 576L674 579L676 579L676 577L679 578L680 575L682 579L684 575L685 578L692 575L692 577L697 579L699 577L701 579L700 580L702 580L702 584L704 584L708 581L709 578L711 578L711 580L718 579L723 584L722 583L726 581L734 589L737 588L741 590L742 587L742 589L744 589L744 587L749 586L755 590L759 588L759 590L764 589L770 593L773 594L772 591L774 593L774 599L769 606L769 610L766 615L763 614L754 619L752 617L741 618L741 622L735 622L733 620L725 620L720 623L716 621L710 621L712 621L713 626L715 628L714 633L716 633L719 630L724 631L726 633L730 631L735 632L735 638L731 644L735 646L734 647L738 647L740 649L738 653L740 655L739 656L742 653L742 655L746 657L748 661L746 663L750 665L747 668L750 679L745 681L746 688L752 688L749 695L745 697L738 692L699 672L658 670L658 672L660 672L660 676L657 677L657 679L662 684L657 689L658 690L655 693L655 695L653 695L650 700L645 699L645 701L640 700L635 693L637 690L626 682L621 675L616 674L592 676L579 672L574 665L539 665L541 661L539 655L541 655L540 654L542 652L542 648L538 641L539 636L535 632L536 627L533 624L534 621L532 620L528 622L526 620L525 622L519 622L518 624L515 623L504 628L497 627L493 629L487 629L482 627L470 615L463 612L441 594L433 590L432 592L427 591L418 579L413 578L398 578L398 580L391 588L392 592L385 593L378 586L376 586L373 583L369 583L350 565L339 564L324 553L312 547L310 544L311 539L305 534L304 529L300 527L291 526L290 530L292 530L292 532L290 534L280 535L282 532L278 529L282 527L281 521L266 505L266 497L262 489L239 484L234 479L234 477L239 472L239 468L243 468L243 466L269 439L275 430L275 424L278 423L281 424L281 428L279 428L280 431L296 437L296 439L300 441L302 447L305 449L308 448L308 450L309 449L309 451L311 451L321 459L321 461L325 461L343 477L347 477L354 484L362 486L360 495L358 497L362 499L362 501L364 501L367 504L367 506L375 506L380 511L381 514L384 513L386 515L391 516L391 518L406 531L408 529L408 525L410 525L409 522L410 519L412 519L411 518L414 515L414 513L417 514L424 509L432 514L435 513L435 511L439 511L441 513L445 511L448 514L460 512L460 514L463 517L467 517L468 520L470 520L470 522L473 525L477 524L477 528L479 520L478 519L485 512L481 510L480 511L480 509L478 509L477 504L471 496L471 492L474 490L473 489L475 487L471 483L472 480L469 477L469 475L474 474L473 470L477 468L481 454L490 455L495 451L496 448L499 449L505 443L509 443L511 441L511 437L507 437L504 434L505 433L503 435L497 433L494 430L494 426L497 425L506 430L511 425L512 426L514 424L514 422L517 419L517 415L515 415L515 409L510 410L508 408L508 404L516 396L518 396L517 391L523 383L527 386z"></path><path class="leaflet-interactive" stroke="#003893" stroke-opacity="1" stroke-width="2" stroke-linecap="round" stroke-linejoin="round" stroke-dasharray="0" fill="none" fill-opacity="0" fill-rule="evenodd" d="M337 53L355 60L356 63L360 65L370 65L373 68L382 67L384 71L390 73L394 73L396 71L398 73L397 74L403 79L405 79L408 74L414 76L417 73L417 71L425 73L425 77L428 82L426 84L425 89L427 91L423 97L427 99L432 106L438 106L438 112L442 114L442 116L436 121L438 123L438 127L435 130L436 133L446 133L450 131L452 133L456 133L456 135L460 139L462 139L463 136L465 136L468 139L468 141L471 142L471 144L473 144L473 142L476 141L484 149L491 152L491 154L497 158L502 153L505 154L508 157L508 161L512 163L515 171L520 172L522 174L520 178L518 178L519 181L523 181L531 177L533 177L533 179L537 181L539 186L535 190L531 190L532 193L530 195L532 197L534 195L543 196L545 201L544 202L550 206L553 205L555 207L553 209L556 212L557 211L562 213L568 209L575 208L578 211L576 215L578 217L586 217L589 215L589 217L592 220L593 219L594 222L597 225L599 225L599 227L602 230L609 225L611 227L613 225L616 226L616 230L618 232L620 232L622 228L627 229L626 232L629 235L635 235L635 237L639 239L634 240L636 250L638 252L640 250L646 250L650 252L649 259L652 262L654 262L653 263L656 267L663 269L664 276L662 276L663 281L668 284L667 291L673 299L675 297L677 299L676 300L681 303L681 309L686 314L691 313L693 319L698 318L703 323L707 319L708 324L710 324L711 329L706 330L706 334L703 333L699 335L699 337L701 337L702 340L699 347L699 359L694 360L693 365L689 367L689 369L683 375L683 377L679 379L678 387L674 389L676 399L668 404L657 405L657 407L653 411L646 410L641 411L637 414L630 411L630 409L626 411L617 408L608 409L601 400L598 401L590 399L587 396L584 397L578 391L554 391L550 393L547 392L544 395L538 387L537 388L532 384L526 386L523 383L517 391L518 396L516 396L508 404L508 408L510 410L515 409L515 415L517 415L517 419L514 422L514 424L512 426L511 425L506 430L500 426L494 426L494 430L497 433L503 435L505 433L504 434L507 437L511 437L511 441L509 443L505 443L499 449L496 448L492 454L482 454L479 459L480 462L477 468L475 468L473 470L474 473L469 476L469 478L472 480L471 483L475 487L471 493L471 497L474 498L474 502L477 505L478 509L480 509L480 511L481 510L485 512L482 516L481 515L481 517L479 517L478 528L476 524L474 525L465 516L462 517L462 515L460 515L459 512L453 512L449 514L444 511L442 513L436 511L433 514L431 514L428 510L427 511L423 509L418 514L415 513L412 516L412 518L409 521L410 524L407 527L408 529L406 532L406 530L401 525L394 522L394 520L392 520L392 518L389 515L385 513L380 514L380 510L377 507L372 506L370 504L368 506L365 501L358 498L363 486L353 484L347 477L343 477L325 461L321 461L321 459L317 457L316 454L309 451L308 448L305 449L295 437L280 431L279 428L281 428L281 424L275 424L274 419L272 417L273 412L270 411L270 407L268 406L269 403L264 398L267 397L267 395L260 386L260 384L258 390L261 393L260 394L254 390L251 391L252 388L248 382L246 386L242 388L238 384L236 384L235 381L232 381L225 371L219 368L222 367L222 365L227 366L232 360L234 362L244 363L254 373L258 373L260 375L266 375L268 373L271 376L278 371L281 372L281 374L284 375L286 379L288 379L295 375L302 374L303 377L308 378L307 386L310 387L318 397L317 402L319 402L320 405L318 407L323 408L329 406L329 402L324 397L320 385L316 381L316 379L314 379L304 367L304 365L300 363L298 353L304 346L304 344L308 341L308 339L315 337L324 330L326 330L323 329L318 324L314 324L312 320L311 309L314 306L312 301L308 299L311 298L315 290L316 291L319 289L324 281L326 283L327 280L335 278L340 282L341 289L349 289L350 287L357 286L360 283L359 280L361 275L367 275L368 266L370 264L370 258L366 251L362 251L365 250L365 246L368 241L368 235L364 229L358 229L352 225L350 221L350 213L353 204L356 201L355 200L357 192L360 189L365 188L365 181L368 178L368 166L353 166L348 157L346 159L342 159L340 157L338 159L335 158L332 161L327 160L325 162L319 162L316 164L317 167L315 169L308 170L306 168L307 161L305 157L308 154L307 147L297 142L292 145L275 139L272 136L275 131L275 121L270 116L278 112L281 115L284 114L284 112L288 108L290 108L290 106L295 102L294 97L299 88L296 87L296 85L300 83L299 80L295 78L297 76L295 68L296 69L301 66L296 63L296 60L298 58L303 58L306 61L308 61L311 66L324 69L323 62L325 60L325 56L333 60L336 57L336 52L337 53z"></path><path class="leaflet-interactive" stroke="#003893" stroke-opacity="1" stroke-width="2" stroke-linecap="round" stroke-linejoin="round" stroke-dasharray="0" fill="none" fill-opacity="0" fill-rule="evenodd" d="M151 47L160 52L167 59L170 58L175 62L184 72L184 74L187 75L188 78L192 80L195 79L201 83L204 82L210 87L209 89L211 91L213 89L224 90L224 92L229 95L228 100L231 103L229 105L231 109L233 109L233 111L238 116L238 126L241 125L243 129L239 135L243 139L245 139L247 143L256 144L260 142L263 145L265 145L269 143L269 141L266 140L271 137L292 145L297 142L307 147L308 154L305 157L307 161L306 168L308 170L315 169L317 167L317 163L323 163L328 160L333 161L333 159L338 159L340 157L342 159L346 159L348 157L353 166L366 165L368 167L368 175L365 181L365 187L357 191L355 203L350 213L350 221L352 225L358 229L364 229L368 235L368 241L365 246L365 250L362 250L365 251L370 258L370 264L368 266L367 275L361 275L359 279L359 285L351 287L349 289L341 289L340 282L335 278L327 280L326 283L324 281L318 290L315 291L309 299L313 302L314 305L311 309L312 320L314 324L318 324L323 329L326 330L324 330L315 337L309 339L308 342L301 349L301 351L299 351L298 353L300 363L302 365L303 364L304 367L310 373L310 375L314 379L316 379L316 381L320 385L324 397L329 402L329 406L323 408L318 407L320 405L319 402L317 402L318 397L313 392L313 390L307 386L308 379L301 374L294 375L292 378L287 379L280 372L277 371L274 372L272 376L270 376L267 373L265 375L255 373L249 367L247 367L245 363L235 362L232 360L226 366L223 365L220 368L229 375L233 382L236 381L236 383L239 384L242 388L245 387L248 382L252 388L251 391L254 390L260 394L261 393L258 390L259 385L261 385L260 386L267 395L267 397L264 398L269 403L268 406L270 408L270 412L273 413L271 417L274 418L275 421L275 429L272 432L271 436L253 455L253 457L242 468L239 469L239 471L234 476L234 481L229 477L228 480L226 478L229 474L228 472L226 474L225 473L226 469L220 472L219 471L219 473L217 473L219 469L214 470L211 468L212 467L206 467L206 461L204 459L198 458L198 462L189 455L185 455L185 451L181 449L180 446L176 444L170 445L167 442L167 438L164 437L162 430L160 432L158 430L153 431L151 428L149 429L150 427L147 426L148 423L143 420L139 420L133 425L133 431L137 445L135 449L129 442L127 442L124 433L120 431L108 433L108 431L107 432L107 430L100 425L99 418L91 416L88 413L89 408L87 406L80 407L62 391L55 392L52 387L52 372L59 360L62 359L64 354L66 354L64 352L64 348L66 344L65 341L67 334L71 331L71 329L75 327L78 330L83 331L90 326L88 322L88 316L85 313L86 310L88 310L88 312L93 315L95 313L94 306L96 296L99 293L99 291L96 288L94 288L90 280L92 276L91 273L85 271L85 263L90 262L90 260L92 260L92 262L96 260L93 257L95 253L97 255L98 252L101 249L103 249L105 247L104 246L106 246L106 244L103 243L103 241L108 238L109 239L110 236L112 236L112 234L115 231L115 225L118 224L116 222L117 219L115 219L111 215L107 199L111 199L111 197L113 197L115 193L114 192L117 189L131 189L131 187L140 178L142 178L141 177L145 169L146 160L151 155L154 154L158 156L164 156L165 153L169 151L169 149L171 149L172 146L175 147L178 144L178 138L181 135L183 135L184 132L191 125L194 126L194 122L199 121L201 119L199 111L195 108L192 104L193 103L191 103L191 101L184 94L184 92L179 87L179 83L171 77L163 75L161 73L160 66L157 65L154 54L152 52L145 53L139 59L137 57L137 55L144 49L151 47z"></path></g></svg>