<?xml version="1.0" standalone="no"?>
<!DOCTYPE svg PUBLIC "-//W3C//DTD SVG 20010904//EN"
 "http://www.w3.org/TR/2001/REC-SVG-20010904/DTD/svg10.dtd">
<svg version="1.0" xmlns="http://www.w3.org/2000/svg"
 width="800.000000pt" height="450.000000pt" viewBox="0 0 800.000000 450.000000"
 preserveAspectRatio="xMidYMid meet">
<metadata>
Created by potrace 1.16, written by Peter Selinger 2001-2019
</metadata>
<g transform="translate(0.000000,450.000000) scale(0.100000,-0.100000)"
fill="#000000" stroke="none">
<path d="M1546 4473 c-4 -10 -14 -13 -30 -9 -26 6 -40 -12 -29 -40 5 -15 1
-16 -33 -10 -21 4 -47 16 -57 27 -19 20 -57 26 -57 9 0 -5 5 -10 10 -10 6 0
10 -7 10 -15 0 -8 -4 -15 -10 -15 -13 0 -13 -47 0 -55 8 -5 8 -11 1 -19 -6 -7
-8 -15 -5 -18 3 -4 -1 -19 -10 -36 -8 -16 -12 -32 -9 -36 4 -3 -9 -22 -28 -41
-25 -25 -43 -34 -67 -35 -32 0 -32 0 -17 -24 10 -14 15 -40 13 -62 -3 -34 0
-38 27 -47 17 -5 50 -10 74 -11 59 -4 73 -23 65 -93 -6 -46 -4 -53 11 -53 9 0
19 8 22 18 3 14 21 22 66 30 100 19 111 18 135 -6 13 -13 34 -22 52 -22 28 0
30 -2 30 -41 0 -32 -4 -42 -20 -46 -19 -5 -40 -55 -40 -94 0 -9 -7 -30 -15
-45 -21 -40 -19 -78 5 -99 17 -16 24 -16 44 -5 14 7 36 10 51 6 21 -5 28 -2
43 23 11 20 27 32 50 36 20 4 47 21 70 46 40 42 72 51 72 20 0 -10 6 -24 14
-30 8 -7 18 -26 21 -43 6 -26 10 -29 33 -23 37 10 55 13 70 14 6 1 12 10 12
20 0 15 10 20 43 25 51 8 76 9 102 4 18 -3 20 2 19 53 -1 47 2 57 20 65 14 6
25 25 33 59 7 28 17 58 22 67 11 18 5 48 -9 48 -5 0 -22 11 -38 25 -17 14 -36
23 -44 20 -8 -3 -22 3 -32 14 -10 11 -25 17 -33 14 -9 -4 -22 2 -30 12 -10 14
-26 19 -61 20 -47 0 -47 0 -47 35 -1 23 6 41 20 52 17 15 18 17 3 18 -11 0
-15 5 -12 14 3 8 -4 16 -20 20 -14 3 -26 13 -26 21 0 8 -7 15 -16 15 -13 0
-15 7 -9 43 8 47 8 44 6 73 -1 27 -32 41 -43 20 -5 -8 -15 -13 -23 -9 -9 3
-22 0 -30 -7 -11 -9 -19 -8 -37 4 -12 9 -32 16 -43 16 -11 0 -30 6 -41 14 -11
8 -42 17 -69 21 -28 4 -62 15 -76 25 -15 10 -42 25 -62 33 -32 14 -36 14 -41
0z"/>
<path d="M902 4270 c-39 -6 -72 -50 -72 -97 0 -18 -5 -33 -11 -33 -6 0 -27
-16 -47 -35 -20 -19 -40 -35 -44 -35 -3 0 -9 -13 -13 -30 -4 -16 -12 -30 -19
-30 -7 0 -23 -11 -36 -25 -17 -18 -34 -25 -61 -25 -40 0 -57 -19 -72 -80 -4
-14 -22 -42 -41 -62 -29 -32 -42 -38 -75 -38 -25 0 -41 -5 -41 -12 0 -6 -7
-19 -16 -29 -19 -21 -12 -80 11 -99 8 -7 15 -21 15 -31 0 -14 6 -17 31 -14 17
2 41 12 53 23 45 40 73 51 114 46 26 -3 43 0 50 9 13 16 102 14 112 -3 8 -12
42 -9 62 7 23 19 87 42 93 33 5 -7 36 3 85 29 21 11 26 69 6 77 -10 4 -16 18
-16 35 0 17 -7 41 -16 54 -9 13 -12 29 -8 36 4 6 8 19 9 28 3 34 25 69 54 91
30 20 42 50 21 50 -5 0 -10 13 -10 28 0 16 -10 39 -22 52 -12 12 -23 32 -24
44 -1 12 -3 24 -3 27 -2 11 -34 15 -69 9z"/>
<path d="M1003 4037 c-11 -12 -27 -43 -35 -68 -13 -42 -13 -48 3 -67 10 -13
14 -31 12 -46 -4 -18 0 -28 11 -32 23 -9 21 -76 -2 -97 -10 -10 -28 -17 -40
-17 -11 0 -24 -5 -28 -11 -3 -6 -16 -8 -29 -5 -14 4 -40 -4 -69 -19 -26 -14
-58 -25 -72 -25 -29 0 -40 -20 -25 -48 16 -30 2 -92 -23 -102 -21 -9 -21 -9 2
-16 12 -3 22 -10 22 -15 0 -5 15 -15 34 -23 18 -8 40 -23 47 -33 8 -11 22 -22
32 -26 11 -4 21 -16 24 -28 5 -17 11 -20 37 -15 43 9 54 9 111 1 27 -3 53 -11
56 -17 7 -12 109 20 109 33 0 4 9 11 21 14 12 4 18 13 15 20 -2 7 11 30 30 50
19 20 34 41 34 46 0 5 6 9 14 9 16 0 46 53 46 81 0 12 16 25 45 38 44 19 45
21 45 66 0 42 2 46 20 40 18 -6 20 -2 18 27 -1 18 1 42 5 54 10 29 -14 56 -58
63 -36 6 -38 8 -38 42 0 19 3 41 7 47 4 6 2 21 -4 32 -10 19 -27 25 -60 22
-19 -2 -91 19 -108 31 -9 8 -14 5 -18 -11 -5 -18 -14 -21 -60 -21 -43 0 -60 6
-83 24 l-28 24 -20 -22z"/>
<path d="M2387 3922 c-14 -15 -31 -49 -37 -77 -7 -27 -22 -58 -33 -68 -16 -14
-20 -29 -19 -68 1 -55 -9 -66 -49 -50 -16 6 -32 5 -44 -1 -10 -6 -31 -11 -47
-10 -21 0 -28 -4 -28 -19 0 -22 -6 -25 -72 -33 l-48 -6 -27 58 c-15 31 -29 59
-31 62 -2 3 -16 -9 -30 -26 -31 -36 -99 -77 -113 -69 -5 4 -12 -2 -16 -12 -13
-34 -31 -44 -68 -37 -34 6 -48 -7 -24 -22 7 -4 9 -24 6 -56 -7 -55 9 -102 31
-93 7 3 22 0 33 -5 33 -18 88 -15 103 5 8 11 20 16 29 12 9 -3 19 -2 22 3 9
15 62 12 68 -4 4 -9 14 -12 26 -9 16 4 21 1 21 -13 0 -42 60 -65 74 -28 3 8
19 14 35 14 25 0 30 5 38 38 7 29 13 36 29 34 10 -2 30 -4 42 -4 17 0 27 -8
34 -29 12 -36 27 -37 58 -4 30 32 40 32 40 -2 0 -47 14 -58 70 -56 37 2 50 -1
50 -12 0 -23 16 -25 38 -5 12 11 25 20 30 20 11 0 22 34 22 67 0 14 9 24 28
31 40 14 59 55 44 94 -10 27 -9 35 4 49 23 26 10 75 -22 83 -15 4 -24 14 -24
26 0 20 -8 24 -47 20 -29 -2 -31 25 -3 42 25 16 25 27 3 43 -12 9 -25 10 -42
4 -32 -13 -55 -4 -43 16 6 12 -1 26 -25 51 -18 20 -33 41 -33 49 0 25 -28 23
-53 -3z"/>
<path d="M1488 3917 c-54 -12 -59 -24 -22 -56 21 -18 24 -28 18 -49 -4 -15 -7
-43 -8 -62 -1 -26 -5 -35 -18 -34 -13 1 -17 -7 -16 -38 0 -43 -17 -62 -64 -73
-23 -5 -28 -12 -28 -36 0 -16 -4 -29 -10 -29 -5 0 -10 -8 -10 -18 0 -11 -11
-24 -25 -30 -14 -7 -28 -20 -32 -29 -3 -10 -15 -27 -27 -38 -12 -11 -21 -27
-21 -35 0 -8 -24 -29 -53 -46 -54 -33 -54 -35 -7 -59 11 -6 21 -21 23 -34 3
-17 8 -21 20 -15 44 18 64 16 90 -9 17 -17 40 -27 64 -29 32 -2 42 4 80 45 34
35 53 47 79 49 31 3 34 0 37 -25 3 -28 5 -28 45 -22 23 4 42 8 42 9 1 0 13 20
28 43 36 57 42 86 23 124 -11 22 -13 36 -6 49 6 10 10 30 10 45 0 21 -6 27
-31 32 -43 8 -63 43 -56 95 3 24 11 44 16 46 6 2 11 12 11 22 0 11 5 42 11 70
9 43 14 50 30 45 16 -5 19 -1 19 29 0 34 -2 36 -35 36 -24 0 -39 6 -47 20 -14
22 -50 24 -130 7z"/>
<path d="M635 3662 c-3 -9 -19 -13 -47 -11 -44 3 -103 -21 -124 -49 -6 -8 -25
-16 -42 -18 -33 -4 -111 -72 -104 -92 3 -11 -43 -62 -57 -62 -6 0 -8 -6 -5
-14 4 -10 -2 -16 -18 -18 -28 -4 -36 -37 -13 -54 10 -7 15 -20 12 -28 -4 -9 4
-27 16 -41 l22 -26 22 20 c12 11 44 30 72 43 28 12 51 26 51 31 0 5 14 6 30 2
19 -4 36 -2 45 5 10 9 19 9 28 2 6 -5 27 -13 45 -17 29 -6 34 -4 39 14 3 12
12 21 20 21 20 0 74 -30 94 -53 14 -15 21 -16 43 -6 14 7 26 17 26 23 0 6 9
17 20 24 20 12 19 13 -12 47 -17 19 -40 35 -50 35 -10 0 -21 7 -24 15 -3 8
-14 17 -25 20 -25 8 -25 35 0 42 24 6 32 57 13 84 -12 17 -12 23 2 43 15 24
15 24 -29 28 -31 2 -46 -1 -50 -10z"/>
<path d="M2759 3644 c-13 -7 -32 -11 -41 -8 -14 4 -18 -1 -18 -21 0 -14 -6
-28 -14 -31 -11 -4 -12 -12 -3 -39 14 -46 -6 -94 -45 -107 -22 -8 -28 -16 -28
-38 0 -30 -29 -69 -68 -89 -25 -13 -42 -7 -42 16 0 12 -6 14 -27 8 -38 -9 -39
-11 -24 -48 23 -55 25 -79 9 -91 -14 -11 -38 -48 -38 -61 0 -3 11 -16 25 -29
35 -33 16 -55 -50 -59 -28 -2 -56 -7 -63 -11 -18 -11 -30 -46 -37 -105 -5 -46
-4 -49 21 -55 18 -5 32 -2 45 9 15 14 23 15 53 5 19 -6 40 -18 47 -26 7 -8 24
-14 38 -12 32 3 51 -8 51 -29 0 -8 9 -27 21 -41 13 -17 18 -34 14 -49 -4 -18
-1 -23 14 -23 11 0 23 -9 26 -21 4 -13 12 -18 22 -15 39 15 64 17 78 6 8 -7
15 -8 15 -3 0 16 76 14 89 -1 7 -8 35 -20 64 -27 51 -12 77 -28 77 -48 0 -6
21 -12 48 -12 70 -3 76 -3 88 -11 18 -12 115 3 121 18 3 8 11 14 19 14 7 0 31
7 52 15 35 14 38 19 34 46 -3 17 -1 34 4 38 5 3 17 22 27 42 10 19 29 48 43
64 13 15 24 32 24 37 0 4 7 8 15 8 11 0 15 13 16 48 1 26 2 54 3 63 1 22 25
49 43 49 27 0 8 22 -30 35 -20 7 -37 10 -37 6 -1 -3 -10 5 -20 18 -11 13 -20
20 -20 17 0 -4 -9 -2 -20 4 -11 6 -20 19 -20 29 0 10 -9 26 -20 36 -11 10 -20
15 -20 10 0 -4 -9 4 -20 18 -12 15 -17 32 -13 42 4 11 0 21 -10 27 -11 6 -17
22 -17 43 0 28 -4 35 -19 35 -22 0 -51 40 -51 70 0 16 -6 20 -33 20 -26 0 -35
6 -45 30 -8 16 -11 34 -7 40 3 5 2 10 -4 10 -6 0 -19 10 -31 22 -11 12 -20 16
-20 10 0 -7 -9 -12 -20 -12 -11 0 -20 7 -20 15 0 18 -23 19 -50 3 -16 -11 -23
-9 -40 9 -11 12 -20 27 -20 33 0 5 -3 9 -7 8 -5 0 -15 2 -23 5 -8 3 -26 7 -40
9 -16 2 -25 9 -24 20 2 23 -17 28 -47 12z"/>
<path d="M2195 3400 c-5 -30 -12 -40 -26 -41 -35 -3 -40 -4 -47 -15 -22 -33
-92 -13 -92 28 0 14 -5 18 -19 13 -12 -3 -21 0 -25 10 -6 17 -41 20 -51 5 -4
-6 -14 -9 -23 -6 -10 3 -30 -5 -46 -18 -24 -20 -28 -31 -30 -80 -1 -32 -6 -60
-12 -64 -5 -4 -17 -19 -27 -34 -10 -16 -25 -28 -35 -28 -12 0 -5 -10 21 -33
22 -18 38 -39 37 -47 -4 -28 0 -40 15 -40 8 0 15 -6 15 -14 0 -8 16 -24 36
-35 31 -19 35 -25 32 -57 -1 -19 2 -38 9 -42 6 -4 12 -16 14 -27 3 -11 14 -21
26 -23 16 -2 29 9 55 47 18 28 36 51 40 51 3 0 13 6 20 14 19 19 81 51 92 47
6 -1 26 -4 45 -6 20 -1 46 -6 59 -10 18 -6 22 -4 22 13 0 31 38 52 91 52 29 0
51 6 59 15 10 12 9 15 -4 15 -27 0 -42 45 -25 78 8 15 20 32 27 37 16 13 7 58
-14 76 -8 7 -12 20 -9 30 4 13 0 21 -12 26 -25 9 -33 23 -33 58 l0 30 -24 -27
c-30 -36 -62 -37 -70 -3 -5 18 -13 25 -31 25 -13 0 -27 5 -30 10 -12 20 -23 9
-30 -30z"/>
<path d="M1740 3382 c-8 -2 -30 -34 -48 -72 -33 -66 -35 -68 -79 -75 -48 -7
-59 -2 -65 30 -7 38 -59 15 -129 -59 -13 -14 -16 -24 -9 -37 6 -10 6 -27 1
-41 -9 -25 5 -78 21 -78 5 0 16 -7 24 -15 8 -8 21 -12 29 -9 18 7 19 0 3 -43
-10 -29 -10 -35 6 -46 11 -8 33 -11 59 -8 32 5 46 2 60 -11 9 -10 30 -18 47
-18 17 0 38 -9 50 -22 18 -19 30 -23 78 -21 67 3 103 25 116 72 9 31 7 35 -49
85 -39 36 -56 58 -52 69 4 10 -6 25 -29 42 -19 14 -34 33 -34 41 0 13 12 18
25 12 3 -2 17 15 31 36 20 29 27 52 28 93 1 54 1 55 -34 67 -19 6 -42 10 -50
8z"/>
<path d="M825 3352 c-12 -9 -24 -24 -27 -33 -4 -9 -24 -21 -45 -26 -35 -9 -38
-12 -35 -42 2 -27 -1 -32 -14 -27 -13 5 -14 1 -9 -23 5 -25 2 -33 -19 -46 -14
-10 -26 -25 -26 -35 0 -13 -13 -21 -47 -30 -50 -12 -83 -34 -83 -56 0 -7 -9
-16 -20 -19 -30 -10 -24 -22 15 -29 21 -4 43 -18 58 -37 16 -21 35 -31 62 -36
42 -6 92 -41 112 -77 11 -21 12 -21 22 7 12 32 31 32 45 0 12 -26 65 -28 116
-5 19 9 52 17 73 17 21 1 45 8 53 17 15 14 14 20 -4 60 -10 24 -33 64 -51 88
-17 24 -31 49 -31 56 0 7 -6 14 -12 17 -8 3 -6 7 7 12 69 24 76 28 66 38 -16
16 -13 36 8 65 10 15 23 44 29 64 10 35 9 37 -22 50 -17 7 -34 12 -38 10 -4
-1 -19 3 -34 8 -15 6 -31 7 -38 2 -16 -13 -66 -24 -66 -14 0 4 -6 16 -12 25
-12 15 -15 15 -33 -1z"/>
<path d="M615 3336 c-16 -20 -21 -22 -56 -12 -21 5 -39 14 -39 19 0 5 -10 2
-23 -6 -17 -11 -28 -12 -41 -5 -12 7 -22 6 -34 -4 -9 -8 -34 -22 -54 -32 -21
-9 -38 -21 -38 -26 0 -6 -8 -10 -17 -10 -27 -1 -50 -39 -58 -98 -6 -45 -10
-52 -25 -47 -17 5 -18 3 -10 -26 12 -41 -10 -62 -56 -54 -51 9 -51 -4 1 -56
15 -16 28 -19 54 -15 35 5 117 -10 137 -26 6 -4 19 -6 28 -2 18 7 49 -13 41
-26 -9 -15 15 -22 30 -10 9 8 12 22 8 41 -3 19 -1 29 6 29 9 0 9 5 1 20 -9 17
-7 22 17 31 16 6 22 13 16 16 -16 6 -17 23 -1 23 6 0 19 6 27 13 9 8 37 20 64
27 35 9 47 17 47 32 0 10 11 24 25 30 15 7 24 17 20 25 -3 7 -8 19 -11 27 -3
9 3 17 17 21 15 5 18 9 9 15 -14 9 -5 50 11 50 15 0 -13 25 -48 43 -29 16 -31
15 -48 -7z"/>
<path d="M1078 3265 c-7 -25 -20 -55 -30 -65 -20 -21 -23 -46 -8 -55 21 -13 8
-33 -25 -39 -19 -4 -35 -13 -35 -20 0 -14 56 -97 74 -108 6 -4 7 -10 4 -14 -4
-4 -1 -16 7 -28 19 -26 19 -60 0 -76 -19 -16 -1 -45 40 -65 30 -14 78 -15 92
-2 12 12 29 7 52 -14 20 -19 26 -20 47 -8 33 17 78 2 82 -29 2 -12 16 -36 32
-53 16 -18 27 -37 24 -43 -6 -19 22 -47 40 -40 15 6 15 9 3 23 -8 9 -20 32
-27 51 -7 19 -23 46 -36 60 -98 105 -107 135 -63 192 16 20 45 44 65 55 41 21
45 34 15 48 -28 13 -46 67 -32 94 9 16 7 24 -11 41 -12 11 -33 20 -47 20 -15
0 -34 10 -47 27 l-21 27 -42 -16 c-31 -12 -43 -14 -46 -5 -11 40 -17 48 -39
57 -13 5 -27 14 -31 19 -13 22 -25 10 -37 -34z"/>
<path d="M3755 3229 c-22 -4 -55 -11 -73 -15 -26 -5 -34 -12 -39 -34 -5 -28
-25 -40 -67 -40 -10 0 -29 -11 -42 -26 -24 -25 -32 -64 -14 -64 6 0 10 -9 10
-20 0 -11 -5 -20 -11 -20 -24 0 -40 -33 -46 -95 -4 -45 -10 -65 -19 -65 -8 0
-14 -4 -14 -9 0 -5 -6 -16 -13 -23 -34 -35 -67 -87 -67 -106 0 -11 -5 -22 -12
-24 -20 -7 0 -39 31 -51 36 -13 45 -41 25 -79 -13 -26 -13 -32 1 -60 8 -17 15
-39 15 -50 0 -18 18 -29 72 -42 21 -5 28 -2 35 17 18 50 59 107 76 107 10 0
33 11 52 25 18 14 39 24 46 23 7 -2 18 7 24 20 7 13 22 30 33 38 13 9 18 21
15 34 -4 16 0 20 20 20 14 0 33 -7 42 -16 15 -16 18 -15 43 13 15 17 32 39 38
49 10 17 29 21 59 14 6 -1 24 3 42 11 25 10 32 20 38 53 5 23 7 45 6 50 -1 4
3 14 9 21 16 19 1 45 -25 45 -28 0 -39 24 -24 52 9 17 8 23 -4 29 -8 5 -18 28
-22 51 -6 34 -4 44 11 55 16 12 17 15 4 23 -8 5 -18 6 -23 3 -4 -3 -19 -2 -33
1 -19 5 -24 12 -22 29 2 16 -2 22 -17 22 -11 0 -25 3 -32 8 -6 4 -14 3 -18 -2
-8 -14 -50 3 -50 19 0 17 -12 19 -60 9z"/>
<path d="M1470 3005 c-7 -8 -19 -15 -26 -15 -8 0 -14 -4 -14 -10 0 -5 -6 -10
-14 -10 -24 0 -76 -68 -76 -100 0 -17 5 -30 10 -30 6 0 10 -6 10 -13 0 -7 8
-20 18 -29 47 -47 62 -67 78 -108 10 -25 24 -51 31 -58 15 -16 17 -32 4 -32
-5 0 -13 -14 -16 -32 -6 -26 -3 -34 16 -49 16 -12 28 -15 41 -8 26 14 57 11
86 -9 52 -36 59 -35 78 16 21 58 32 72 53 72 9 0 24 11 33 24 16 22 16 26 1
56 -14 28 -14 38 -3 69 7 20 19 41 26 46 7 6 11 21 8 35 -5 22 -10 25 -49 25
-35 0 -48 5 -60 22 -10 14 -25 21 -45 21 -17 -1 -39 7 -49 16 -13 12 -33 17
-58 16 -59 -4 -83 8 -83 39 0 15 5 32 12 39 6 6 9 14 6 17 -3 3 -11 -1 -18
-10z"/>
<path d="M85 2953 c-9 -32 -20 -65 -26 -73 -29 -45 -50 -103 -40 -109 6 -4 10
-18 9 -32 -2 -19 1 -24 18 -22 13 1 35 -13 58 -37 21 -22 52 -44 69 -48 22 -6
33 -15 35 -30 2 -12 10 -22 18 -22 7 0 25 -18 38 -39 31 -49 42 -56 83 -52 25
2 35 -3 50 -26 17 -27 45 -54 50 -49 2 2 -1 25 -6 52 -8 43 -7 52 11 71 23 25
31 108 12 124 -6 5 -17 30 -24 55 -10 36 -11 53 -1 79 12 34 6 85 -10 85 -5 0
-13 10 -18 22 -4 13 -18 22 -32 24 -13 1 -47 9 -76 17 -35 10 -64 12 -88 7
-33 -7 -38 -5 -63 26 -15 19 -32 34 -39 34 -7 0 -20 -26 -28 -57z"/>
<path d="M2160 2990 c0 -5 -8 -10 -18 -10 -31 0 -103 -63 -125 -109 -16 -34
-80 -38 -85 -6 -7 35 -20 38 -49 11 -15 -14 -36 -26 -47 -26 -15 0 -17 -5 -12
-34 5 -24 3 -35 -8 -39 -8 -3 -19 -21 -26 -41 -9 -29 -8 -41 5 -70 16 -33 16
-36 -2 -61 -10 -14 -31 -28 -46 -32 -26 -5 -27 -6 -9 -19 11 -7 25 -27 32 -44
13 -32 17 -33 131 -30 45 1 58 -2 63 -16 5 -13 14 -15 41 -11 21 3 36 1 39 -6
7 -18 36 22 36 49 0 14 8 25 20 29 11 3 20 11 20 16 0 6 10 9 22 7 19 -3 23 2
24 28 2 53 11 67 39 60 21 -5 29 -1 42 21 18 32 76 73 103 73 13 0 23 16 36
57 13 40 26 61 43 70 24 11 24 12 -14 19 -24 4 -45 2 -57 -5 -35 -22 -85 -2
-79 32 10 61 9 76 -7 82 -31 12 -112 16 -112 5z"/>
<path d="M477 2964 c-4 -4 -4 -18 -1 -31 4 -15 0 -31 -11 -43 -11 -12 -14 -26
-10 -39 3 -12 1 -36 -6 -55 -14 -39 -1 -103 26 -130 9 -8 13 -27 11 -45 -2
-17 2 -32 8 -34 8 -3 7 -8 -2 -19 -11 -13 -9 -17 13 -22 14 -4 23 -11 19 -17
-9 -15 27 -39 53 -34 16 2 23 -3 27 -21 4 -13 11 -24 16 -24 6 0 10 -7 10 -15
0 -9 9 -15 23 -15 13 0 36 -14 53 -32 41 -45 74 -70 74 -57 0 21 45 4 48 -18
2 -15 10 -23 23 -23 10 0 19 -4 19 -10 0 -5 7 -6 17 -3 11 5 14 3 8 -6 -5 -10
-2 -11 14 -6 27 8 59 -14 39 -26 -10 -7 -10 -9 1 -9 8 0 22 -7 32 -16 10 -9
48 -23 86 -32 71 -18 72 -19 87 -92 3 -14 21 -42 40 -63 19 -20 38 -53 42 -72
7 -39 29 -47 37 -14 4 16 12 20 38 17 19 -2 36 -11 43 -23 6 -11 17 -24 24
-28 6 -4 12 -19 12 -32 0 -13 5 -27 10 -30 6 -3 10 -1 10 4 0 6 5 11 11 11 6
0 8 -7 5 -15 -3 -10 1 -18 12 -22 19 -7 68 -41 90 -60 7 -7 26 -13 42 -13 20
0 43 -14 80 -50 29 -27 57 -50 62 -50 5 0 24 -11 42 -25 18 -14 37 -25 42 -25
5 0 20 18 34 40 l25 41 53 -7 c40 -5 52 -3 52 7 0 17 69 40 98 33 19 -5 20 -2
17 38 -2 36 -7 45 -29 52 -15 6 -25 16 -23 25 1 10 -12 19 -38 26 -27 8 -44
20 -53 38 -7 15 -17 27 -22 27 -8 0 -43 27 -87 67 -13 13 -35 26 -48 29 -14 3
-25 12 -25 19 0 12 -38 32 -49 26 -2 -2 -7 2 -10 8 -4 6 -25 19 -47 30 -43 21
-64 14 -64 -21 0 -12 -11 -23 -30 -29 -17 -6 -30 -14 -30 -18 0 -4 -20 -22
-45 -40 -27 -19 -45 -40 -45 -52 0 -10 -5 -19 -11 -19 -7 0 -9 -10 -7 -25 3
-14 1 -28 -3 -31 -5 -3 -9 11 -9 30 0 20 5 36 10 36 6 0 10 7 10 15 0 20 40
59 99 96 25 16 51 43 58 59 10 26 16 30 38 24 20 -5 27 -2 34 17 7 20 4 26
-18 35 -14 6 -32 18 -40 27 -7 10 -18 17 -23 17 -5 0 -47 31 -93 69 -47 38
-94 72 -105 76 -11 3 -20 10 -20 14 0 16 -56 64 -92 78 -21 8 -38 20 -38 25 0
18 -74 -53 -108 -103 -37 -54 -89 -109 -103 -109 -5 0 -9 -9 -9 -19 0 -11 -5
-23 -11 -27 -8 -4 -9 1 -4 17 9 31 23 47 43 54 10 3 39 38 66 79 27 41 59 80
72 86 12 7 25 19 28 26 4 12 -20 97 -41 144 -4 8 -7 26 -7 39 -1 13 -7 26 -14
28 -8 3 -10 -1 -5 -13 5 -14 3 -16 -13 -10 -10 4 -23 8 -29 9 -5 1 -13 10 -17
20 -6 14 -12 16 -26 8 -16 -8 -29 -1 -75 44 -53 51 -60 55 -106 55 -40 0 -50
3 -54 20 -7 28 -24 25 -31 -5 -9 -34 -25 -32 -39 5 -6 17 -17 30 -25 30 -7 0
-15 7 -18 15 -4 8 -16 15 -29 15 -36 0 -82 23 -105 53 -20 26 -67 37 -83 21z"/>
<path d="M948 2832 l-27 -13 49 -49 c54 -54 59 -56 79 -37 11 10 14 9 18 -1 3
-7 12 -20 21 -29 16 -16 17 -15 20 5 2 12 6 22 9 22 10 0 42 -45 43 -61 0 -28
43 -144 63 -171 11 -15 35 -33 54 -39 18 -6 33 -15 33 -20 0 -5 6 -9 13 -9 8
0 19 -11 25 -25 6 -14 16 -25 20 -25 5 0 25 -12 44 -27 19 -16 50 -39 68 -53
18 -14 40 -32 48 -40 8 -8 27 -22 42 -30 15 -8 39 -23 52 -33 20 -14 31 -15
53 -7 34 13 121 -21 112 -44 -9 -22 14 -25 51 -7 34 17 35 19 16 94 -5 20 -3
27 8 27 29 0 51 37 44 72 -11 53 -13 108 -4 108 4 0 8 7 8 16 0 12 -9 15 -37
13 -89 -5 -98 -2 -117 41 -16 38 -34 52 -37 30 -2 -17 -5 -24 -19 -53 -11 -23
-18 -27 -39 -22 -14 4 -37 15 -52 26 -32 22 -51 24 -80 7 -17 -10 -23 -10 -26
0 -3 6 -10 12 -16 12 -20 0 -41 40 -28 53 17 17 13 27 -10 27 -11 0 -18 4 -14
9 3 5 1 12 -5 16 -5 3 -10 14 -10 24 0 10 -11 30 -25 45 -14 15 -25 36 -25 47
0 25 -45 48 -62 31 -13 -13 -58 -16 -58 -4 0 4 -9 13 -21 20 -16 10 -24 10
-35 1 -24 -20 -93 -4 -128 29 -36 34 -79 43 -118 24z"/>
<path d="M2418 2833 c-9 -10 -19 -34 -23 -53 -9 -45 -22 -60 -50 -60 -13 0
-25 -7 -29 -15 -3 -8 -12 -15 -20 -15 -9 0 -23 -12 -33 -27 -23 -37 -34 -43
-59 -37 -19 5 -22 0 -26 -45 -6 -56 -14 -73 -28 -52 -7 12 -11 11 -25 -2 -9
-10 -20 -17 -25 -17 -4 0 -10 -13 -12 -30 -5 -30 7 -39 72 -55 77 -18 99 -29
104 -50 10 -38 106 -45 106 -9 0 22 48 17 55 -5 8 -27 36 -35 120 -36 77 -1
142 -12 151 -26 3 -5 23 -9 46 -9 l40 0 -23 19 -23 18 22 7 c15 5 22 15 22 32
0 23 3 24 38 19 33 -6 35 -5 20 8 -41 33 -14 66 51 63 53 -3 91 12 91 37 0 9
4 17 9 17 5 0 11 6 14 14 8 21 -4 56 -19 56 -7 0 -18 9 -24 19 -5 11 -33 27
-62 36 -29 10 -58 22 -64 27 -19 14 -55 18 -75 8 -10 -6 -27 -6 -41 -1 -13 4
-36 4 -53 0 -24 -7 -33 -5 -45 10 -8 10 -23 21 -33 25 -13 4 -17 12 -12 27 4
12 1 27 -8 37 -9 9 -20 29 -26 45 -6 16 -18 27 -30 27 -10 0 -32 3 -47 6 -21
4 -34 0 -46 -13z"/>
<path d="M4007 2745 c-13 -9 -28 -11 -47 -5 -25 7 -30 5 -36 -13 -6 -20 -62
-77 -74 -77 -3 1 -14 7 -24 15 -28 21 -45 19 -39 -4 3 -13 -3 -25 -21 -36 -14
-10 -26 -22 -26 -27 0 -15 -27 -38 -45 -38 -9 0 -26 -5 -37 -11 -20 -11 -20
-11 7 -29 15 -10 35 -32 46 -49 16 -26 25 -31 57 -31 39 0 142 -44 142 -61 0
-5 15 -9 34 -9 21 0 36 -6 40 -15 3 -8 10 -15 16 -15 6 0 24 -10 40 -21 23
-18 37 -20 70 -15 23 4 47 3 54 -2 6 -5 25 -12 43 -15 28 -6 32 -3 42 23 12
37 33 38 58 5 15 -21 23 -24 51 -19 27 6 32 11 32 36 0 16 -4 37 -9 46 -5 9
-10 33 -12 52 -2 19 -9 44 -16 55 -7 11 -13 27 -13 37 0 10 -4 18 -9 18 -5 0
-13 10 -16 23 -4 12 -18 32 -31 43 -14 12 -24 26 -23 30 3 20 -14 54 -28 54
-9 0 -13 6 -9 15 4 11 -2 15 -22 16 -42 1 -74 8 -89 20 -19 17 -86 19 -106 4z"/>
<path d="M3289 2611 c-26 -9 -54 -22 -62 -29 -18 -16 -116 -20 -176 -8 l-43 8
6 -30 c5 -21 2 -34 -9 -46 -24 -24 -37 -126 -19 -147 8 -8 14 -23 14 -32 0
-12 9 -17 29 -17 17 0 33 5 36 10 7 12 45 14 45 2 0 -4 10 -12 22 -17 28 -13
47 -43 33 -53 -6 -4 -10 -25 -10 -47 l0 -39 58 -1 c32 -1 62 -6 65 -11 16 -22
68 -38 122 -39 58 0 59 0 65 -32 4 -23 15 -38 35 -48 33 -17 39 -45 15 -65 -8
-7 -15 -24 -15 -37 0 -14 -16 -44 -36 -69 -20 -24 -34 -49 -31 -56 7 -18 67
-52 67 -39 0 6 9 11 20 11 21 0 43 37 32 54 -3 5 3 15 13 22 16 12 17 14 2 20
-23 9 -21 23 7 45 13 10 27 30 30 45 5 17 12 24 21 20 8 -3 16 -1 16 4 1 6 2
15 3 20 0 6 8 15 15 20 12 7 9 10 -12 15 -18 5 -29 16 -33 32 -4 14 -21 48
-39 75 l-33 49 -10 -30 c-13 -37 -27 -39 -51 -9 -25 31 -56 18 -46 -20 5 -20
4 -24 -5 -16 -6 7 -10 22 -8 35 4 33 50 38 71 9 l15 -22 16 31 c10 18 24 31
35 31 13 0 21 10 25 34 4 20 23 50 47 75 37 37 39 42 25 57 -23 23 -20 32 19
55 29 17 33 24 25 39 -6 11 -20 26 -32 34 -24 17 -78 22 -78 7 0 -5 -6 -16
-12 -23 -7 -7 -23 -31 -35 -53 -23 -41 -26 -42 -92 -32 -15 3 -29 14 -34 28
-5 13 -16 39 -25 58 -12 28 -12 41 -3 66 16 46 14 62 -11 69 -29 7 -33 7 -89
-13z"/>
<path d="M4348 2592 c-29 -3 -37 -25 -15 -39 15 -10 37 -65 47 -123 5 -25 12
-53 16 -63 4 -10 7 -26 8 -35 1 -24 28 -58 51 -66 11 -3 33 -27 48 -53 26 -42
27 -47 12 -63 -9 -10 -21 -51 -27 -92 -6 -40 -17 -80 -24 -89 -8 -8 -14 -18
-14 -21 0 -12 -71 -77 -90 -83 -19 -6 -50 -56 -50 -80 0 -7 -9 -20 -20 -30
-23 -21 -26 -45 -7 -45 18 0 67 -24 67 -32 0 -5 9 -8 20 -8 14 0 20 -7 20 -23
0 -31 8 -38 30 -25 25 16 65 2 78 -27 15 -33 54 -48 87 -33 l25 11 -25 45
c-14 24 -25 53 -25 63 0 11 18 38 40 61 22 24 40 51 40 62 0 10 5 37 12 58 11
39 13 40 48 35 20 -2 43 1 51 7 20 14 43 82 34 97 -4 6 9 27 28 47 19 21 37
48 39 62 2 17 14 30 36 40 39 18 47 43 33 98 -13 47 -6 72 19 72 12 0 21 10
25 30 4 17 10 30 15 30 5 0 9 25 9 55 0 36 -5 55 -12 55 -7 0 -21 11 -31 25
-14 18 -22 22 -31 15 -7 -6 -20 -8 -28 -4 -19 7 -63 -38 -73 -73 -7 -26 -27
-35 -60 -27 -13 4 -38 1 -54 -6 -26 -11 -35 -9 -70 9 -22 11 -46 21 -53 21 -7
0 -25 6 -40 13 -20 9 -25 17 -20 35 4 16 1 22 -10 22 -9 0 -24 14 -34 30 -13
23 -24 30 -48 30 -17 0 -35 4 -40 8 -6 4 -22 6 -37 4z"/>
<path d="M1911 2425 c-9 -25 -9 -40 -2 -54 20 -37 13 -79 -19 -109 -26 -25
-28 -31 -16 -47 16 -22 9 -65 -13 -72 -9 -3 -24 -12 -33 -20 -19 -17 -61 -1
-52 20 3 8 -9 18 -29 25 -55 20 -74 16 -86 -19 -13 -36 -5 -46 57 -78 23 -12
42 -25 42 -30 0 -5 14 -14 30 -20 17 -5 30 -14 30 -19 0 -11 77 -61 84 -54 3
3 6 14 6 24 0 38 66 82 103 69 12 -4 59 -6 105 -5 64 2 82 -1 82 -11 0 -12 50
-55 64 -55 3 0 6 7 6 15 0 8 5 15 10 15 16 0 11 40 -8 68 -28 40 -33 61 -20
81 9 15 8 24 -5 45 -21 31 -21 36 -1 36 8 0 12 5 9 10 -7 12 16 70 27 70 5 0
8 7 8 15 0 8 -7 15 -15 15 -8 0 -17 11 -21 24 -3 14 -13 28 -22 31 -43 18
-133 37 -190 41 -35 2 -72 9 -82 14 -29 16 -35 12 -49 -25z"/>
<path d="M2955 2450 c-3 -5 -27 -9 -53 -9 -26 1 -53 1 -59 0 -18 -1 -16 -30 2
-37 17 -7 19 -22 6 -43 -8 -12 -12 -12 -26 2 -23 24 -35 21 -35 -7 0 -13 -6
-26 -12 -29 -10 -4 -10 -7 0 -18 16 -18 15 -29 -3 -29 -8 0 -15 -4 -15 -10 0
-5 5 -10 10 -10 6 0 14 -8 18 -17 16 -38 47 -83 57 -83 6 0 18 -9 28 -20 9
-11 25 -20 34 -20 20 0 63 -46 63 -67 0 -18 15 -17 46 4 25 16 26 15 77 -36
49 -50 54 -53 94 -48 34 4 44 1 48 -13 4 -12 12 -16 25 -13 15 4 20 0 20 -16
0 -24 42 -45 73 -37 23 6 57 -13 57 -31 0 -7 9 -13 20 -13 11 0 20 5 20 10 0
6 9 20 20 32 11 12 20 32 20 44 0 12 7 29 15 38 22 21 19 35 -11 48 -14 7 -32
27 -39 45 -11 27 -20 33 -42 33 -48 -1 -97 12 -128 34 -16 11 -32 20 -35 19
-3 -1 -15 0 -28 4 -13 3 -28 1 -34 -5 -7 -7 -17 -8 -29 -2 -13 7 -17 22 -17
57 1 27 4 50 9 53 10 7 -11 32 -39 48 -16 9 -28 10 -42 2 -10 -5 -32 -10 -49
-10 -24 0 -31 4 -31 20 0 11 -7 23 -15 26 -11 5 -14 19 -10 60 4 54 2 63 -10
44z"/>
<path d="M3678 2423 l-29 -13 17 -29 17 -29 -41 -40 c-28 -27 -45 -54 -50 -79
-5 -21 -14 -37 -20 -36 -7 2 -12 -2 -12 -7 0 -5 4 -10 10 -10 5 0 12 -11 16
-25 3 -14 15 -32 26 -39 10 -7 18 -17 17 -22 -3 -21 2 -34 14 -34 6 0 18 -4
26 -9 12 -8 13 -12 1 -26 -11 -14 -10 -17 8 -22 12 -3 22 -9 22 -14 0 -5 9 -9
20 -9 21 0 60 -33 60 -50 0 -5 14 -10 30 -10 18 0 33 -6 37 -15 9 -24 62 -48
77 -36 7 6 39 10 72 8 32 -1 60 1 62 6 1 4 2 25 2 47 0 29 -4 40 -15 40 -8 0
-15 5 -15 10 0 6 5 10 10 10 14 0 13 63 -1 77 -9 9 -9 20 0 44 6 17 11 47 11
64 0 18 7 38 15 45 8 7 15 17 15 23 0 6 7 19 17 29 15 17 15 18 -15 18 -17 0
-37 6 -45 14 -19 19 -88 56 -105 56 -7 0 -28 11 -46 25 -18 14 -39 25 -47 25
-8 0 -19 4 -24 9 -16 15 -105 17 -137 4z"/>
<path d="M2371 2350 c-13 -11 -34 -20 -47 -20 -15 0 -24 -6 -24 -15 0 -8 -4
-15 -9 -15 -8 0 -22 -31 -25 -58 0 -7 -8 -17 -16 -22 -9 -6 -10 -10 -3 -10 17
0 28 -61 12 -70 -10 -7 -10 -11 0 -24 8 -9 11 -16 8 -16 -4 0 5 -16 18 -36 29
-43 30 -47 10 -64 -18 -15 -19 -34 -2 -52 7 -7 16 -22 20 -32 6 -15 10 -17 19
-8 7 7 22 12 35 12 13 0 23 4 23 9 0 5 11 4 25 -2 14 -7 25 -17 25 -22 0 -12
40 -39 41 -28 6 68 22 93 61 93 10 0 21 7 24 15 6 14 11 13 41 -5 53 -31 82
-17 109 52 3 10 14 20 23 23 16 5 29 24 51 78 7 15 16 27 20 27 4 0 6 9 3 20
-3 11 -12 20 -19 20 -8 0 -14 8 -14 18 -1 25 -35 62 -59 62 -11 0 -22 4 -25 9
-3 4 -32 14 -64 21 -45 9 -64 9 -81 1 -14 -8 -27 -8 -38 -2 -10 5 -21 9 -26 9
-33 1 -67 17 -72 33 -8 24 -14 23 -44 -1z"/>
<path d="M4260 2311 c0 -40 -59 -50 -110 -19 -16 10 -22 8 -39 -13 -11 -13
-20 -31 -21 -40 0 -9 -7 -19 -15 -23 -9 -3 -15 -18 -15 -40 0 -19 -5 -47 -10
-62 -6 -15 -7 -31 -2 -38 5 -6 12 -40 16 -76 12 -117 14 -132 20 -137 3 -3 26
6 52 21 59 33 112 34 146 3 36 -33 73 -21 136 43 36 37 52 61 52 79 -1 44 21
133 36 149 9 8 12 18 7 21 -5 3 -19 23 -32 44 -13 22 -30 37 -42 37 -10 0 -19
6 -19 14 0 24 -15 27 -57 12 -38 -13 -40 -13 -62 15 -27 33 -41 37 -41 10z"/>
<path d="M5490 2191 c0 -11 -4 -21 -10 -23 -5 -1 -11 -12 -13 -24 -8 -53 -67
-101 -67 -54 0 24 -73 60 -122 60 -26 0 -39 -8 -61 -36 -27 -33 -30 -34 -50
-21 -14 9 -29 11 -42 6 -34 -13 -45 -10 -75 21 -19 19 -35 28 -43 23 -6 -4
-25 -6 -42 -4 -30 3 -29 2 23 -46 50 -48 63 -75 42 -88 -5 -3 -10 -14 -10 -23
0 -10 -9 -25 -20 -35 -11 -9 -17 -23 -14 -31 3 -9 -3 -17 -16 -21 -17 -5 -19
-10 -9 -21 6 -7 8 -25 5 -38 -5 -20 -2 -25 16 -28 16 -2 24 -11 26 -30 3 -23
8 -26 48 -30 29 -2 49 1 56 9 6 7 17 13 24 13 8 0 14 4 14 10 0 5 12 16 28 24
15 8 36 28 47 45 11 17 32 37 47 43 16 8 28 23 32 39 6 33 32 43 86 34 28 -5
40 -12 40 -23 0 -14 2 -14 9 -3 9 15 104 51 133 51 24 0 23 6 -6 37 -14 15
-28 45 -31 67 -10 61 -27 116 -37 116 -4 0 -8 -9 -8 -19z"/>
<path d="M2799 2128 c-20 -45 -38 -72 -53 -80 -9 -5 -16 -15 -16 -22 0 -8 -7
-16 -15 -20 -8 -3 -15 -14 -15 -25 0 -29 -51 -37 -91 -14 -24 13 -33 15 -36 6
-3 -7 -14 -13 -26 -13 -35 0 -46 -13 -52 -57 -6 -47 9 -69 53 -79 52 -11 56
-14 44 -26 -17 -17 -15 -38 3 -38 9 0 18 -7 21 -15 4 -10 13 -13 26 -9 17 5
18 3 8 -15 -10 -20 -3 -42 28 -91 2 -2 7 1 11 8 4 7 28 13 54 15 26 1 49 7 52
15 2 7 22 12 45 12 48 0 54 21 13 47 -16 9 -30 18 -32 20 -2 1 2 9 8 17 7 8
10 20 6 25 -3 6 2 27 11 46 12 26 25 38 46 42 22 4 27 10 22 22 -4 9 -9 33
-12 54 -2 20 -9 37 -14 37 -23 0 1 25 27 27 25 2 44 17 45 34 0 16 -44 59 -61
59 -10 0 -24 9 -31 20 -17 27 -56 26 -69 -2z"/>
<path d="M4878 2139 c-10 -5 -18 -20 -18 -32 0 -13 -15 -38 -32 -57 -25 -26
-33 -45 -34 -73 0 -22 -9 -49 -21 -65 -17 -22 -27 -27 -60 -24 -38 2 -40 0
-51 -37 -7 -21 -12 -47 -12 -59 0 -11 -15 -33 -34 -50 -47 -41 -51 -60 -21
-116 14 -26 25 -53 25 -60 0 -17 -50 -27 -92 -19 l-33 6 18 -27 c10 -14 15
-31 12 -36 -12 -20 5 -29 37 -19 27 7 36 5 55 -13 12 -11 20 -24 18 -29 -3 -4
-1 -10 4 -13 5 -4 12 -2 16 4 9 15 31 12 49 -5 13 -13 15 -13 21 5 5 15 12 18
36 13 16 -3 35 0 43 6 15 13 116 12 116 -1 0 -4 7 -8 15 -8 8 0 24 -5 35 -12
16 -11 24 -7 54 24 20 21 36 42 36 48 0 5 7 10 15 10 8 0 15 5 15 10 0 12 -10
12 -85 0 -33 -5 -61 -6 -65 -1 -10 16 -81 51 -91 45 -5 -3 -10 11 -10 33 -1
124 -6 184 -17 195 -18 18 -15 28 8 28 12 0 31 9 43 21 12 11 32 25 45 30 12
5 22 15 22 24 0 8 7 15 15 15 8 0 15 9 15 20 0 11 9 25 20 32 11 7 20 22 20
33 0 12 6 27 12 33 10 10 2 23 -40 62 -28 27 -52 53 -52 59 0 14 -29 14 -52 0z"/>
<path d="M3020 2045 c-7 -8 -19 -15 -28 -15 -8 0 -31 -7 -51 -16 -34 -15 -36
-18 -33 -55 2 -22 8 -42 13 -45 5 -3 9 -16 9 -30 0 -13 5 -24 10 -24 6 0 10
-6 10 -14 0 -27 55 -29 88 -3 15 12 62 -27 62 -51 0 -8 16 -30 35 -49 26 -26
33 -39 25 -48 -8 -9 -5 -14 12 -19 33 -9 36 -8 34 11 -2 23 31 28 54 8 17 -15
20 -14 54 16 28 24 39 29 50 20 18 -15 70 -3 84 20 10 16 9 21 -8 31 -11 7
-20 22 -20 33 0 11 -8 30 -18 43 -14 18 -25 22 -55 19 -20 -2 -37 0 -37 4 0 5
-9 9 -20 9 -15 0 -20 7 -20 26 0 20 -4 24 -19 19 -12 -3 -21 0 -25 10 -4 10
-19 15 -50 15 -37 0 -49 5 -73 33 -56 61 -68 70 -83 52z"/>
<path d="M1959 2023 c-24 -6 -62 -93 -41 -93 6 0 14 -12 20 -28 7 -21 19 -30
56 -40 30 -8 46 -17 43 -25 -2 -6 7 -19 21 -27 19 -12 25 -25 28 -63 l4 -49
-35 5 c-19 3 -38 1 -41 -4 -3 -5 -13 -9 -24 -9 -10 0 -20 -6 -23 -13 -6 -16
50 -80 63 -72 13 8 47 -11 105 -60 28 -23 65 -50 84 -60 19 -9 49 -33 67 -52
33 -35 34 -35 96 -28 55 6 93 14 148 33 8 3 23 4 33 3 14 -2 16 3 12 21 -5 19
0 26 26 37 24 10 39 11 59 4 20 -7 35 -7 56 3 l29 12 -43 1 c-28 1 -50 8 -63
20 -22 20 -18 41 7 41 26 0 21 66 -8 96 -12 14 -16 24 -9 28 12 8 -15 39 -43
49 -13 5 -17 15 -14 31 4 21 0 25 -27 30 -19 4 -53 25 -78 49 -45 41 -97 60
-97 34 0 -8 -4 -7 -10 3 -9 13 -11 13 -20 0 -8 -12 -16 -8 -48 26 -21 23 -52
49 -70 58 -18 9 -32 22 -32 29 0 9 -30 12 -108 13 -59 0 -114 -1 -123 -3z"/>
<path d="M5593 1991 c-4 -4 -35 -15 -68 -26 -33 -10 -68 -25 -77 -33 -15 -13
-18 -13 -23 1 -8 20 -69 31 -95 17 -11 -6 -20 -20 -20 -31 0 -12 -8 -23 -20
-26 -26 -7 -25 -25 0 -48 18 -16 20 -28 16 -102 -2 -46 -8 -89 -13 -96 -13
-17 -14 -54 -2 -84 8 -22 14 -25 42 -19 25 5 35 2 47 -14 9 -12 23 -22 30 -24
30 -5 87 -47 98 -71 12 -25 32 -34 32 -15 0 21 88 4 121 -24 36 -31 54 -29 54
5 0 14 5 23 13 21 6 -1 13 5 13 13 4 51 25 75 65 75 32 0 34 2 28 28 -3 15
-10 37 -16 49 -8 17 -6 27 11 51 28 40 27 52 -7 52 -22 0 -50 12 -81 36 -2 2
4 15 14 30 l18 27 -42 34 c-30 26 -41 42 -41 63 0 16 -4 32 -10 35 -5 3 -17
21 -25 39 -16 33 -45 50 -62 37z"/>
<path d="M3635 1974 c-11 -8 -20 -20 -20 -25 0 -6 -13 -22 -30 -34 -25 -21
-27 -25 -12 -31 19 -7 24 -34 6 -34 -6 0 -9 -7 -5 -15 3 -8 1 -15 -4 -15 -5 0
-10 -10 -12 -22 -2 -15 -11 -24 -25 -26 -13 -2 -23 -8 -23 -13 0 -6 -9 -9 -19
-7 -10 2 -29 -6 -40 -16 -16 -14 -36 -20 -71 -20 -28 0 -50 -3 -50 -8 0 -4 -1
-11 -2 -15 -2 -4 30 -8 71 -9 60 0 76 -4 87 -19 13 -17 15 -17 27 -2 10 14 19
14 63 4 28 -7 58 -20 68 -29 19 -19 30 -21 61 -9 11 5 32 5 48 0 15 -4 27 -4
27 1 0 5 9 11 19 15 15 5 19 15 18 52 0 38 4 50 27 70 19 16 22 23 12 23 -9 0
-16 4 -16 9 0 5 -9 7 -20 4 -18 -5 -20 -1 -18 28 1 19 10 40 20 47 26 19 22
32 -10 32 -20 0 -35 9 -50 30 -13 17 -31 30 -42 30 -10 0 -22 5 -25 10 -9 14
-37 12 -60 -6z"/>
<path d="M5970 1968 c0 -10 -4 -18 -10 -18 -5 0 -16 -13 -25 -30 -9 -16 -22
-30 -29 -30 -20 0 -25 -69 -8 -105 9 -16 20 -39 25 -50 7 -13 6 -20 -1 -23
-40 -13 -108 -101 -92 -118 5 -5 10 -27 12 -48 3 -38 1 -40 -32 -49 -39 -10
-50 -22 -50 -55 0 -12 -7 -25 -15 -28 -8 -4 -15 -12 -15 -18 0 -7 -11 -23 -25
-36 -24 -22 -25 -45 -2 -37 7 2 20 0 30 -5 13 -7 17 -4 17 12 0 16 5 21 21 18
16 -2 25 -15 34 -45 7 -23 10 -45 7 -48 -3 -3 8 -6 24 -6 16 -1 40 -2 54 -3
14 -1 31 -5 37 -9 9 -5 17 1 25 20 20 44 60 81 103 96 31 11 45 24 66 63 15
27 36 51 46 53 37 7 51 29 45 76 -3 32 0 48 11 59 18 18 43 21 52 6 10 -16 52
-12 59 6 3 9 6 37 6 64 0 44 -2 49 -31 61 -30 12 -33 11 -51 -14 -22 -30 -58
-36 -78 -12 -7 8 -21 15 -31 15 -11 0 -19 5 -19 11 0 6 -6 9 -14 6 -8 -3 -17
1 -20 10 -5 12 -15 14 -41 10 -32 -5 -35 -3 -40 21 -3 15 -10 47 -16 71 -5 24
-6 47 -2 50 5 3 0 22 -9 41 -10 20 -18 28 -18 18z"/>
<path d="M6350 1900 c0 -16 -7 -33 -16 -38 -10 -5 -18 -28 -21 -56 -5 -41 -3
-49 16 -63 19 -13 22 -23 20 -76 -2 -40 1 -62 9 -65 17 -5 15 -68 -4 -108 -13
-27 -22 -34 -44 -34 -33 0 -48 -16 -56 -58 -6 -30 -37 -72 -53 -72 -4 0 -13
-11 -19 -24 -10 -22 -8 -25 19 -35 16 -5 29 -15 29 -20 0 -6 7 -11 15 -11 8 0
15 -4 15 -9 0 -4 29 -37 65 -73 87 -88 149 -100 159 -31 2 12 13 19 32 21 30
3 94 32 94 43 0 3 22 6 49 6 27 0 54 4 60 8 18 11 34 57 22 65 -7 4 -5 16 5
35 9 18 11 31 5 35 -12 7 -6 69 9 84 5 5 10 23 10 38 0 15 5 28 10 28 15 0 12
21 -6 41 -18 20 -11 79 9 79 7 0 4 7 -5 14 -10 7 -15 15 -13 18 3 3 -1 21 -9
40 -9 20 -12 38 -9 42 4 4 8 15 10 25 2 14 -6 20 -28 25 -17 3 -28 10 -24 16
3 5 -10 16 -30 24 -19 8 -35 20 -35 27 0 8 -4 8 -13 1 -8 -7 -26 -8 -49 -3
-48 11 -61 20 -54 38 17 44 -51 73 -76 33 -8 -12 -24 -20 -39 -20 -18 0 -28 6
-32 20 -8 31 -27 24 -27 -10z"/>
<path d="M4170 1892 c0 -13 -89 -52 -95 -42 -3 5 -18 9 -33 9 -15 0 -43 2 -62
4 -19 2 -42 -1 -51 -6 -12 -8 -26 -6 -50 6 -40 19 -64 9 -67 -28 -1 -21 2 -26
14 -21 13 5 64 -30 53 -36 -2 -2 -13 -8 -24 -14 -15 -9 -21 -23 -23 -64 -2
-36 -9 -58 -20 -67 -16 -11 -15 -12 4 -13 11 0 24 -3 27 -7 12 -11 61 -12 74
-1 9 7 22 7 45 -1 18 -7 64 -14 103 -17 77 -6 99 -17 90 -45 -4 -11 -2 -19 4
-19 6 0 11 -9 11 -19 0 -29 17 -35 32 -11 16 25 29 25 54 1 18 -16 23 -17 39
-5 16 12 16 14 3 14 -18 0 -33 34 -22 51 3 6 24 9 45 7 27 -2 39 0 39 9 0 7 7
13 16 13 12 0 15 6 10 23 -3 12 -6 28 -6 35 0 6 -7 12 -15 12 -8 0 -24 8 -35
18 -11 9 -30 19 -43 22 -30 8 -34 37 -8 61 12 11 21 26 21 34 0 7 3 20 6 29
11 28 -51 76 -97 76 -21 0 -39 -4 -39 -8z"/>
<path d="M2864 1844 c-26 -39 -24 -90 3 -116 13 -12 23 -32 23 -44 0 -21 -4
-22 -36 -17 -28 5 -40 2 -50 -11 -6 -10 -18 -16 -26 -15 -50 6 -77 -2 -90 -28
-7 -16 -23 -32 -36 -38 -12 -5 -22 -13 -22 -16 0 -16 62 -30 144 -31 80 -2 90
0 106 20 13 16 29 22 59 22 22 0 43 -4 46 -10 3 -5 14 -10 25 -10 10 0 21 -7
24 -16 5 -13 16 -16 56 -12 38 4 50 2 50 -8 0 -8 8 -15 18 -16 9 0 23 -2 29
-2 7 -1 22 -9 32 -18 12 -10 23 -13 26 -7 4 5 12 6 18 2 16 -10 34 -14 80 -18
21 -2 55 -9 74 -16 28 -9 40 -8 60 2 22 12 27 11 41 -7 27 -34 48 -36 67 -7
15 23 22 25 60 20 24 -4 45 -3 47 2 2 5 21 11 43 15 83 12 105 19 105 31 0 7
7 26 15 41 8 16 15 34 15 39 0 26 -74 39 -183 34 -16 0 -37 7 -49 17 -11 11
-28 18 -38 16 -10 -2 -21 2 -25 8 -8 13 -55 13 -55 0 0 -5 -9 -10 -20 -10 -11
0 -20 4 -20 9 0 9 -48 26 -62 23 -7 -2 -76 -3 -136 -2 -12 0 -25 7 -28 15 -9
22 -46 19 -42 -2 2 -12 -4 -19 -19 -21 -16 -2 -20 -8 -16 -20 4 -9 10 -20 15
-23 15 -10 -32 -59 -57 -59 -19 0 -23 -4 -18 -17 6 -16 5 -17 -11 -3 -17 13
-17 15 5 23 78 30 80 34 49 85 -15 24 -18 38 -11 46 8 9 4 16 -14 26 -15 8
-30 29 -37 52 -14 47 -42 75 -60 60 -26 -21 -98 -19 -98 3 0 9 -12 20 -26 25
-33 13 -31 14 -50 -16z"/>
<path d="M4900 1835 c-25 -19 -53 -35 -64 -35 -16 0 -17 -2 -5 -17 8 -9 15
-45 16 -87 4 -118 5 -126 19 -126 8 0 14 -3 14 -8 0 -4 15 -13 33 -21 17 -8
34 -17 37 -21 10 -13 139 16 160 35 15 14 38 20 82 21 64 1 93 20 81 50 -3 8
0 20 6 28 6 7 13 49 16 93 5 71 3 82 -15 98 -19 17 -21 17 -63 -22 -24 -22
-57 -49 -73 -59 -16 -10 -31 -21 -34 -24 -3 -3 -29 -4 -57 -2 -48 4 -53 6 -53
28 0 17 -8 27 -25 34 -21 8 -24 14 -19 40 8 38 -1 38 -56 -5z"/>
<path d="M7590 1779 c0 -6 -11 -20 -25 -31 -14 -11 -25 -27 -25 -35 0 -29 -49
-83 -76 -83 -16 0 -24 -6 -24 -17 0 -26 -24 -87 -37 -96 -7 -4 -13 -15 -13
-22 0 -18 -46 -20 -53 -2 -3 6 -6 3 -7 -8 -4 -58 -11 -79 -33 -99 -25 -23 -46
-109 -49 -197 -2 -54 51 -126 97 -134 19 -3 51 -7 70 -10 20 -4 41 -2 48 2 6
4 41 9 77 9 36 1 94 4 130 8 57 6 68 10 92 39 15 17 28 38 28 46 0 8 9 34 21
58 16 33 18 47 10 57 -7 8 -9 29 -5 52 6 38 12 53 62 142 12 23 24 58 27 78 2
21 9 40 14 44 12 7 16 59 7 81 -5 11 -1 19 10 23 15 6 12 10 -16 28 -28 17
-37 18 -54 8 -16 -10 -22 -9 -33 6 -7 10 -13 15 -13 11 0 -4 -9 -3 -20 3 -14
8 -26 8 -41 0 -16 -9 -28 -8 -52 3 -18 8 -46 13 -64 10 -31 -5 -39 1 -34 30 0
4 -3 7 -9 7 -5 0 -10 -5 -10 -11z"/>
<path d="M6766 1735 c-4 -20 -2 -44 5 -57 28 -54 29 -57 12 -87 -17 -28 -17
-31 0 -49 19 -21 22 -48 7 -57 -5 -3 -10 -18 -10 -33 0 -15 -7 -35 -14 -45
-11 -14 -12 -27 -5 -53 6 -19 6 -40 2 -47 -4 -6 -8 -29 -9 -49 0 -32 4 -39 28
-49 22 -9 31 -9 43 1 9 7 18 10 22 6 3 -3 16 0 27 8 32 21 68 4 60 -29 -5 -19
0 -30 24 -50 16 -14 32 -38 36 -55 3 -16 9 -45 12 -62 4 -18 18 -47 32 -64 24
-30 29 -32 78 -28 45 4 55 2 65 -15 12 -19 13 -19 46 6 18 14 33 33 33 42 0 9
9 34 20 56 11 21 17 41 12 44 -7 6 -22 29 -46 72 -13 23 -13 38 -1 120 8 52
15 97 15 100 0 4 11 17 23 30 13 13 27 42 30 63 7 43 26 70 34 49 7 -18 33
-16 33 2 0 8 4 15 9 15 16 0 42 81 36 111 -7 32 -17 36 -35 15 -15 -19 -40 -9
-40 14 0 22 -22 39 -28 22 -2 -7 -16 -12 -32 -12 -15 0 -33 -7 -40 -15 -18
-22 -88 -16 -74 6 9 15 -13 10 -30 -6 -17 -17 -62 -20 -71 -5 -9 15 -41 12
-55 -5 -25 -30 -140 -10 -140 24 0 23 -72 101 -92 101 -10 0 -18 -13 -22 -35z"/>
<path d="M4408 1600 c-7 -11 -18 -20 -25 -20 -6 0 -13 -6 -15 -12 -3 -8 -18
-12 -40 -10 -44 4 -60 -16 -30 -36 26 -17 29 -32 7 -32 -9 0 -18 -12 -21 -29
-7 -33 -42 -56 -72 -46 -19 5 -58 -8 -72 -24 -3 -3 -22 -14 -43 -24 -51 -23
-114 -74 -120 -96 -5 -19 -66 -31 -154 -31 -24 0 -43 -5 -43 -11 0 -6 8 -8 19
-4 25 8 35 -9 16 -28 -8 -9 -15 -24 -15 -35 0 -16 9 -21 43 -25 43 -4 43 -4
85 48 4 6 11 18 15 29 5 11 13 16 23 12 9 -3 22 -6 30 -6 8 0 14 -7 14 -15 0
-9 12 -21 28 -28 15 -6 30 -15 33 -20 3 -5 9 -8 13 -8 25 4 34 -3 46 -33 12
-32 18 -35 73 -45 33 -6 63 -8 68 -6 4 3 19 1 32 -4 19 -7 28 -6 37 5 7 7 18
14 24 14 6 0 18 20 25 45 12 41 15 44 40 39 14 -4 40 -13 58 -21 44 -20 51
-12 42 44 -13 81 -11 93 17 103 24 10 26 14 20 50 -5 35 -4 40 21 52 20 9 28
21 28 38 0 23 -3 25 -50 25 l-50 0 -8 40 c-4 22 -8 49 -8 60 0 55 -65 87 -91
45z"/>
<path d="M3908 1596 c-16 -5 -28 -17 -28 -26 0 -8 -6 -24 -14 -35 -7 -11 -15
-28 -17 -38 -5 -22 -67 -47 -116 -47 -18 0 -33 -5 -33 -10 0 -7 -18 -8 -51 -4
-45 6 -51 5 -56 -14 -5 -22 -29 -36 -44 -26 -5 3 -23 7 -39 9 -23 3 -30 0 -30
-14 0 -9 -6 -26 -14 -37 -16 -22 -12 -133 6 -171 6 -13 49 -42 102 -69 50 -25
105 -55 123 -65 30 -19 32 -19 49 -2 15 16 16 18 2 21 -9 2 -19 15 -23 29 -7
30 -9 28 30 40 17 5 32 18 34 29 1 10 10 27 19 37 14 16 14 17 -8 15 -16 -2
-25 3 -28 15 -3 14 4 17 45 17 80 0 153 12 153 25 0 37 204 161 247 150 48
-12 65 34 27 73 -12 12 -17 10 -33 -9 -10 -12 -23 -19 -29 -15 -17 10 -42 66
-36 81 6 14 -39 25 -126 28 -25 1 -51 6 -57 10 -7 5 -13 5 -13 0 0 -4 -4 -3
-8 3 -5 7 -16 7 -34 0z"/>
<path d="M6230 1595 c-8 -10 -11 -30 -7 -57 5 -34 2 -44 -16 -59 -12 -10 -29
-19 -37 -19 -8 0 -26 -24 -40 -52 -22 -45 -31 -54 -69 -66 -45 -15 -90 -55
-91 -82 0 -8 -7 -24 -15 -34 -11 -14 -18 -16 -28 -8 -7 6 -33 12 -57 13 -64 3
-67 6 -75 55 -4 28 -11 44 -21 44 -8 0 -14 -7 -14 -15 0 -13 -7 -15 -37 -9
-21 4 -46 8 -56 10 -13 2 -17 -2 -13 -14 3 -9 -1 -29 -8 -44 -24 -46 9 -108
56 -108 39 0 108 -48 108 -74 0 -9 4 -16 8 -16 5 0 22 -11 37 -24 15 -13 40
-30 54 -36 14 -7 34 -16 43 -21 29 -15 64 -10 84 12 15 16 16 24 6 39 -29 48
-1 128 71 202 24 25 49 59 56 75 7 17 23 35 37 41 17 8 28 25 36 58 9 33 20
50 41 60 15 8 31 12 36 10 15 -10 30 19 36 67 l6 47 -45 0 c-25 0 -48 5 -51
10 -9 14 -21 12 -35 -5z"/>
<path d="M5119 1552 c-10 -7 -19 -24 -19 -38 0 -13 -4 -24 -10 -24 -14 0 -60
-49 -60 -64 0 -8 6 -19 14 -26 8 -6 12 -18 9 -26 -3 -8 0 -14 6 -14 6 0 11
-11 11 -25 0 -29 24 -34 35 -7 4 9 9 37 10 61 4 52 10 59 37 42 18 -11 25 -9
59 18 25 21 49 31 71 31 29 0 34 4 36 25 1 17 -3 25 -14 25 -9 0 -18 9 -21 20
-5 18 -13 20 -75 18 -39 -2 -79 -9 -89 -16z"/>
<path d="M2889 1539 c-11 -16 -27 -21 -70 -24 -32 -2 -66 -8 -77 -14 -12 -6
-27 -11 -36 -11 -8 0 -16 -6 -18 -12 -3 -9 -9 -8 -22 5 -20 20 -44 21 -68 4
-14 -11 -15 -20 -6 -63 5 -27 14 -53 19 -58 5 -6 9 -23 9 -38 0 -15 5 -28 11
-28 6 0 8 -9 3 -22 -4 -13 -9 -35 -10 -50 -2 -32 13 -37 115 -34 63 3 74 0 78
-15 7 -25 77 -39 162 -32 65 5 76 4 87 -12 11 -14 14 -15 15 -4 0 8 2 31 4 52
2 21 0 48 -5 61 -6 15 -4 32 4 48 13 25 13 50 -6 156 -8 50 -14 62 -29 62 -11
0 -19 4 -19 10 0 13 -66 40 -100 40 -17 0 -33 -8 -41 -21z"/>
<path d="M5344 1532 c-19 -12 -25 -42 -9 -42 10 0 15 -10 15 -30 0 -16 -4 -30
-10 -30 -5 0 -12 -11 -16 -24 -4 -17 -19 -30 -45 -40 -25 -10 -39 -22 -39 -34
0 -10 -5 -23 -12 -30 -8 -8 -5 -14 14 -21 14 -5 28 -17 32 -26 10 -28 7 -65
-7 -71 -8 -3 -14 -17 -15 -32 0 -23 7 -30 49 -50 27 -12 49 -27 49 -32 0 -5 6
-7 14 -4 8 3 17 1 20 -4 3 -5 23 -6 46 -2 22 4 42 4 45 0 2 -4 16 -5 30 -3 13
3 22 10 19 15 -3 5 -3 21 1 35 5 22 10 25 39 20 28 -4 35 -1 50 24 12 20 15
39 11 59 -4 19 -1 37 8 50 8 12 13 30 10 40 -3 12 3 22 16 29 43 23 11 66 -61
82 -38 9 -45 8 -59 -10 -16 -19 -17 -19 -38 19 -12 21 -30 42 -41 45 -11 4
-20 11 -20 16 0 5 -9 9 -20 9 -12 0 -31 11 -43 24 -13 14 -28 22 -33 18z"/>
<path d="M3085 1473 c19 -96 22 -157 9 -182 -11 -20 -10 -29 2 -53 10 -18 12
-34 6 -41 -5 -7 -8 -31 -7 -54 2 -33 8 -48 28 -63 14 -12 24 -27 21 -34 -6
-16 10 -28 43 -32 18 -2 30 8 53 41 25 37 28 45 15 55 -8 7 -12 17 -8 24 4 6
8 17 8 25 0 12 20 14 109 12 95 -2 108 -1 98 12 -15 17 -23 146 -11 167 5 8
13 27 19 43 5 15 16 27 25 27 8 0 15 5 15 10 0 14 -23 13 -37 -1 -9 -9 -23 -9
-56 1 -25 6 -60 13 -78 15 -41 4 -60 8 -76 18 -6 4 -15 2 -18 -3 -5 -8 -12 -7
-23 4 -10 8 -34 17 -54 21 -21 4 -38 11 -38 16 0 5 -12 9 -26 9 -25 0 -26 -2
-19 -37z"/>
<path d="M4810 1429 c0 -7 -14 -10 -36 -7 -27 3 -38 0 -45 -14 -9 -17 -11 -17
-35 -2 -23 15 -26 15 -43 0 -9 -9 -20 -13 -24 -10 -3 4 -13 -1 -22 -10 -9 -9
-22 -13 -28 -9 -7 4 -8 0 -3 -13 9 -22 9 -22 7 -52 -1 -14 -10 -26 -27 -32
-24 -10 -26 -14 -20 -48 4 -20 8 -48 9 -62 2 -22 6 -25 38 -22 26 2 56 -7 115
-39 72 -38 86 -41 158 -43 61 -1 80 -4 84 -16 3 -8 16 -26 28 -39 13 -13 24
-29 24 -35 0 -14 47 -36 75 -36 12 0 25 -4 30 -9 6 -5 28 -11 50 -12 38 -3 51
-7 95 -29 11 -5 26 -10 34 -10 8 0 16 -7 20 -15 3 -8 10 -15 16 -15 6 0 8 5 4
12 -4 6 2 18 12 26 13 10 15 16 7 19 -7 3 -13 15 -13 28 0 16 -9 26 -29 35
-43 17 -50 58 -17 87 30 25 32 33 11 33 -8 0 -15 5 -15 10 0 6 -9 10 -20 10
-11 0 -43 11 -72 25 -28 14 -59 25 -67 25 -30 0 -56 87 -36 119 5 9 3 18 -6
25 -8 6 -13 19 -11 29 2 10 -3 17 -12 17 -12 0 -15 6 -10 24 6 24 -14 40 -38
31 -7 -3 -38 4 -68 15 -60 22 -120 26 -120 9z"/>
<path d="M5128 1408 c0 -13 0 -34 1 -47 1 -14 -10 -39 -29 -62 -17 -22 -26
-39 -20 -39 7 0 9 -8 5 -21 -8 -25 12 -69 32 -69 13 0 22 -4 80 -34 41 -21 43
-21 43 14 0 17 6 33 13 35 19 8 13 67 -9 80 -29 16 -32 25 -20 56 13 37 4 52
-51 85 l-43 25 -2 -23z"/>
<path d="M6115 1223 c-63 -71 -82 -126 -63 -176 8 -21 8 -34 -2 -52 -15 -29
-7 -43 14 -26 11 10 21 9 45 -3 16 -9 37 -16 46 -16 8 0 15 -6 15 -12 0 -7 20
-25 44 -40 l44 -26 59 39 c32 21 62 39 67 39 22 0 95 56 91 69 -3 7 -1 19 5
26 15 18 1 49 -16 34 -26 -21 -77 1 -130 57 -27 30 -55 54 -61 54 -7 0 -15 9
-18 20 -3 11 -11 20 -17 20 -6 0 -16 7 -22 14 -6 8 -22 17 -36 20 -20 4 -33
-4 -65 -41z"/>
<path d="M6877 1209 c-9 -5 -21 -7 -27 -4 -5 3 -18 0 -29 -7 -15 -9 -25 -9
-46 0 -32 15 -65 -2 -57 -30 2 -10 8 -18 13 -18 5 0 9 -9 9 -20 0 -11 5 -20
10 -20 6 0 10 -5 10 -12 0 -6 7 -19 15 -28 25 -27 1 -70 -38 -70 -29 0 -29 0
-13 -24 11 -18 14 -39 10 -77 -3 -29 -7 -56 -10 -61 -3 -4 6 -13 19 -19 31
-14 52 -56 37 -74 -8 -9 -8 -14 0 -17 13 -4 17 -73 6 -104 -9 -27 20 -37 67
-22 96 32 102 36 125 79 18 35 21 48 12 72 -11 34 -1 59 34 82 12 8 29 26 36
39 12 23 9 29 -29 77 -30 38 -39 57 -35 74 3 13 1 26 -5 29 -6 4 -11 19 -11
33 0 24 -32 63 -52 63 -4 0 -8 16 -8 35 0 37 -11 43 -43 24z"/>
<path d="M7805 1165 c-4 -22 -19 -56 -35 -74 -24 -30 -34 -35 -86 -40 -33 -2
-92 -5 -131 -5 -40 0 -73 -2 -73 -5 0 -3 17 -20 38 -38 l37 -32 -22 -16 c-13
-9 -23 -24 -23 -33 0 -10 -21 -29 -53 -46 -54 -30 -106 -81 -107 -104 0 -8 -9
-27 -21 -43 -18 -25 -18 -30 -5 -35 9 -3 16 -17 16 -29 0 -34 10 -55 26 -55 8
0 14 -4 14 -9 0 -4 -10 -6 -23 -4 -18 4 -24 12 -25 41 -4 49 -16 62 -56 55
-32 -5 -33 -4 -40 38 -4 24 -14 51 -23 61 -9 10 -17 34 -18 54 -1 20 -11 47
-21 61 -17 22 -24 24 -56 18 -31 -6 -38 -12 -38 -30 0 -13 -12 -34 -28 -47
-49 -41 -61 -66 -49 -98 9 -23 7 -35 -7 -63 -24 -43 -16 -102 14 -110 11 -3
22 -1 25 4 7 10 91 1 119 -13 19 -10 63 5 78 27 5 7 14 6 26 -1 22 -14 156
-16 199 -3 35 11 44 31 30 72 -8 23 -5 33 17 62 15 19 35 35 45 35 25 0 68 23
92 49 25 26 92 61 118 61 19 0 23 12 36 103 8 59 26 131 35 142 5 6 7 15 4 18
-4 3 -10 21 -14 39 l-7 33 -8 -40z"/>
<path d="M6598 1170 c-13 -8 -24 -18 -26 -22 -2 -5 -19 -8 -38 -8 -27 0 -35
-5 -40 -24 -3 -14 -3 -30 1 -35 3 -6 3 -26 0 -45 -5 -25 -18 -42 -50 -65 -24
-17 -50 -31 -58 -31 -7 0 -22 -9 -32 -20 -10 -11 -23 -20 -29 -20 -7 0 -27
-13 -46 -30 -26 -22 -30 -29 -17 -30 9 0 17 -4 17 -10 0 -5 14 -10 30 -10 17
0 30 4 30 10 0 5 11 17 24 25 20 14 31 14 68 5 43 -12 98 -54 98 -75 0 -6 9
-21 21 -33 12 -13 26 -53 35 -94 16 -77 26 -91 59 -84 44 10 120 40 127 50 9
14 5 86 -5 104 -5 6 -5 17 -2 22 11 18 -4 47 -31 59 -22 10 -25 16 -19 39 15
60 15 106 -1 123 -20 22 -11 39 20 39 28 0 54 45 30 54 -8 3 -14 12 -14 21 0
8 -4 15 -10 15 -5 0 -10 9 -10 20 0 11 -4 20 -9 20 -5 0 -11 10 -14 23 -5 18
-13 22 -46 22 -22 0 -50 -7 -63 -15z"/>
<path d="M5624 1140 c-16 -26 -23 -30 -48 -24 -33 7 -48 -9 -40 -42 5 -18 0
-22 -28 -28 -18 -3 -34 -2 -36 3 -2 5 -18 5 -39 0 -22 -4 -44 -4 -55 2 -10 5
-18 7 -18 3 0 -4 -9 1 -19 10 -19 17 -21 17 -51 -11 -35 -33 -33 -50 10 -75
18 -10 30 -25 30 -38 0 -11 5 -20 10 -20 6 0 10 -9 10 -20 0 -11 -6 -20 -12
-20 -9 0 -9 -3 1 -9 12 -8 12 -12 2 -25 -12 -14 -6 -16 62 -16 71 0 78 2 107
30 34 33 61 37 103 15 15 -8 34 -12 42 -9 7 3 18 -4 25 -16 6 -11 16 -18 21
-14 22 13 65 -18 94 -69 31 -52 31 -52 90 -57 61 -6 112 -27 174 -74 35 -26
35 -26 53 -6 10 11 32 20 47 20 26 0 29 3 33 41 2 24 -2 49 -10 60 -8 11 -11
26 -8 34 4 11 -2 15 -19 15 -14 0 -25 5 -25 10 0 6 4 10 9 10 5 0 13 9 16 21
4 11 13 18 20 15 7 -2 16 2 19 10 10 25 7 32 -14 39 -11 3 -20 13 -20 21 0 8
-9 14 -19 14 -11 0 -23 4 -26 10 -3 5 -39 8 -80 7 -54 -2 -76 1 -79 10 -3 7
-13 13 -23 13 -22 0 -85 37 -96 56 -4 8 -15 14 -22 14 -9 0 -15 9 -15 21 0 12
-8 23 -19 26 -11 3 -22 11 -25 18 -2 7 -22 16 -43 20 -21 3 -45 13 -55 22 -14
13 -18 11 -34 -17z"/>
<path d="M4406 1142 c-2 -10 -7 -29 -10 -43 -3 -16 -15 -30 -28 -34 -25 -7
-22 -9 82 -35 30 -8 40 -19 67 -72 18 -35 31 -72 28 -83 -2 -11 -6 -44 -9 -74
-3 -30 -10 -59 -15 -64 -20 -20 -11 -33 37 -54 32 -14 52 -18 64 -12 11 6 19
5 24 -2 5 -8 9 -8 14 1 10 16 50 3 50 -16 0 -19 14 -18 34 5 13 14 14 20 5 23
-9 3 -5 19 15 54 16 27 30 67 31 89 1 22 5 60 9 83 4 26 2 58 -4 78 -7 20 -13
42 -14 50 -3 17 -59 54 -81 54 -8 0 -15 5 -15 10 0 6 -9 10 -19 10 -11 0 -21
5 -23 11 -5 15 -57 19 -107 7 -29 -8 -45 -8 -50 -1 -3 6 -23 15 -43 21 -32 9
-38 8 -42 -6z"/>
<path d="M4816 1052 c-15 -3 -17 -9 -10 -35 12 -48 13 -140 2 -154 -5 -6 -6
-27 -3 -46 5 -23 2 -38 -8 -48 -22 -23 -49 -79 -37 -79 15 0 12 -19 -6 -37
-13 -13 -13 -17 -2 -24 7 -5 23 -9 34 -9 25 0 49 -24 39 -40 -4 -7 2 -14 14
-17 12 -3 21 -9 21 -14 0 -5 11 -9 25 -9 25 0 33 -14 15 -25 -5 -3 -10 -10
-10 -16 0 -14 30 -11 46 6 9 8 32 15 51 15 20 0 34 3 30 6 -3 3 -2 17 3 30 5
13 6 24 1 24 -10 0 -7 66 4 93 4 9 12 17 17 17 7 0 7 5 1 13 -15 20 -8 73 15
101 26 33 46 92 38 111 -3 9 -19 15 -41 15 -19 0 -35 5 -35 10 0 6 -7 10 -15
10 -8 0 -21 14 -30 30 -9 17 -20 30 -25 30 -5 0 -12 11 -16 24 -5 22 -11 24
-52 23 -26 -1 -55 -4 -66 -5z"/>
<path d="M7304 1042 c-7 -4 -17 -27 -24 -52 -8 -27 -25 -56 -44 -72 -25 -22
-31 -33 -30 -67 1 -22 9 -47 18 -56 9 -9 19 -34 22 -56 6 -38 9 -40 33 -34 27
6 60 41 61 62 0 29 50 82 103 112 32 18 57 39 57 48 0 9 8 22 18 29 16 13 15
16 -15 43 -24 23 -45 31 -90 36 -32 3 -67 8 -78 10 -11 2 -25 1 -31 -3z"/>
<path d="M5101 870 c-6 -21 -22 -52 -34 -67 -18 -22 -21 -36 -17 -68 4 -28 0
-49 -12 -69 -9 -16 -15 -34 -12 -38 3 -5 6 -31 6 -59 -1 -27 3 -49 9 -49 12 0
12 -57 0 -64 -5 -4 -3 -19 6 -36 13 -28 18 -30 71 -30 l57 0 3 36 c1 20 8 48
16 63 42 82 52 117 45 156 -7 39 7 95 23 95 5 0 8 7 8 15 0 8 4 15 8 15 4 0
16 14 26 31 18 30 18 31 -5 47 -33 24 -129 61 -160 61 -22 1 -28 -5 -38 -39z"/>
<path d="M5512 851 c-30 -29 -37 -31 -106 -31 -73 0 -75 -1 -93 -30 -9 -16
-21 -30 -25 -30 -4 0 -8 -7 -8 -15 0 -8 -4 -15 -8 -15 -19 0 -30 -48 -21 -90
10 -43 11 -39 -48 -153 -8 -15 -11 -36 -8 -47 4 -11 2 -20 -4 -20 -6 0 -8 -6
-5 -14 4 -11 12 -12 35 -4 16 5 29 14 29 20 0 5 13 8 30 6 18 -1 38 4 50 15
11 9 24 17 28 17 5 0 23 14 40 31 18 17 32 26 32 19 0 -9 5 -8 18 3 23 21 42
22 42 2 0 -37 28 -10 45 43 11 31 23 61 27 67 4 5 8 20 8 34 0 14 8 43 18 65
24 53 43 129 34 138 -4 3 -23 9 -42 13 -31 5 -40 2 -68 -24z"/>
<path d="M6200 860 c-6 -11 -17 -20 -25 -20 -20 0 -19 -26 1 -34 9 -3 14 -12
11 -20 -3 -8 1 -23 8 -34 10 -14 12 -32 7 -63 -7 -40 -10 -44 -41 -49 -43 -6
-51 -25 -14 -34 91 -22 124 -28 177 -32 75 -4 86 -9 86 -34 0 -11 4 -20 9 -20
5 0 12 -18 16 -40 5 -30 13 -43 33 -52 17 -9 29 -24 32 -42 5 -27 30 -50 30
-28 0 16 31 23 46 11 9 -7 18 -7 33 1 12 6 36 10 55 8 41 -2 66 16 66 48 0 27
17 32 26 9 4 -8 13 -15 20 -15 8 0 17 -7 20 -15 8 -20 40 -19 56 1 7 9 31 35
54 58 46 46 83 131 65 149 -10 10 -46 3 -123 -25 -18 -7 -38 -6 -61 1 -29 10
-43 9 -88 -9 -91 -34 -103 -27 -120 66 -9 51 -28 90 -81 166 -30 44 -136 54
-151 14 -9 -24 -58 -24 -84 0 -13 12 -23 29 -23 38 0 23 -27 20 -40 -4z"/>
<path d="M7705 841 c-22 -10 -50 -30 -62 -45 -13 -14 -30 -26 -38 -26 -8 0
-15 -4 -15 -10 0 -5 -10 -10 -22 -10 -43 -1 -81 -50 -67 -88 12 -32 -6 -70
-38 -84 -33 -13 -152 -18 -159 -7 -2 5 -11 6 -19 2 -9 -3 -22 0 -30 7 -8 7
-15 8 -15 3 0 -5 -16 -15 -35 -23 -22 -8 -35 -20 -35 -31 0 -10 -5 -29 -11
-43 -9 -19 -9 -29 0 -40 10 -12 9 -23 -5 -53 -10 -21 -22 -41 -28 -45 -6 -4
-6 -16 2 -33 7 -15 10 -31 6 -36 -3 -6 -8 -24 -11 -42 -3 -17 -12 -36 -20 -42
-19 -14 -23 -127 -4 -133 6 -2 11 -12 11 -23 0 -13 7 -19 24 -19 14 0 28 -5
31 -10 12 -19 25 -10 25 16 0 28 21 54 44 54 8 0 26 5 40 11 27 13 88 5 109
-14 40 -37 64 -37 104 0 17 15 17 16 -7 69 -27 58 -26 179 2 240 14 32 16 47
9 68 -6 14 -7 26 -3 26 4 0 -1 5 -10 11 -10 5 -18 17 -18 26 0 9 -8 22 -17 29
-19 14 -6 19 13 6 13 -9 44 -70 44 -88 0 -14 93 -74 115 -74 8 0 15 -4 15 -9
0 -16 41 -20 47 -4 4 9 13 13 28 9 18 -5 24 -1 29 18 3 14 16 28 28 32 20 6
31 13 62 41 10 9 16 9 25 0 8 -8 11 -4 11 16 0 17 5 27 15 27 8 0 15 5 15 10
0 6 5 10 10 10 6 0 8 -10 4 -24 -3 -14 -1 -32 4 -42 9 -16 10 -15 16 4 4 12
12 22 17 22 5 0 9 9 9 20 0 22 15 27 24 8 3 -7 2 7 -1 32 -3 28 -13 51 -26 61
-12 10 -18 23 -14 32 3 9 -1 21 -9 28 -8 7 -13 19 -12 28 4 21 -37 68 -66 75
-12 3 -29 21 -39 41 -19 41 -41 44 -102 16z"/>
<path d="M5629 808 c-6 -24 -20 -61 -30 -84 -11 -22 -19 -48 -19 -58 0 -22
-30 -118 -41 -131 -16 -16 -10 -43 10 -50 25 -8 32 -29 32 -102 0 -93 7 -113
40 -120 16 -3 34 -12 40 -20 10 -12 17 -9 44 17 31 30 32 35 29 95 -2 36 1 67
7 70 5 4 7 10 5 14 -3 4 -2 21 3 37 6 21 3 36 -9 54 -16 23 -16 32 -4 104 8
43 12 82 9 86 -3 4 1 10 9 13 8 3 13 18 12 39 -1 25 -8 36 -30 48 -22 11 -30
12 -33 3 -3 -9 -11 -6 -26 7 -29 28 -35 26 -48 -22z"/>
<path d="M5775 759 c4 -5 0 -24 -8 -42 -25 -52 -32 -160 -13 -189 12 -18 14
-32 7 -56 -6 -18 -10 -35 -10 -37 -1 -3 -1 -6 -2 -7 -6 -18 -6 -99 1 -103 12
-8 1 -41 -21 -61 -18 -16 -28 -60 -11 -52 33 16 72 45 72 54 0 36 98 50 141
21 34 -24 64 -21 84 9 20 31 14 65 -16 95 -18 18 -20 29 -15 70 5 34 2 57 -8
77 -26 50 2 96 34 57 14 -17 56 -20 65 -5 8 13 -32 46 -99 82 -37 21 -65 28
-104 28 -50 0 -53 2 -69 35 -9 19 -21 35 -25 35 -5 0 -6 -5 -3 -11z"/>
<path d="M5976 584 c-4 -9 1 -28 9 -41 12 -18 15 -37 10 -78 -6 -47 -4 -56 14
-71 30 -26 38 -80 15 -105 -17 -19 -17 -20 5 -41 22 -20 25 -20 51 -4 43 25
134 16 160 -15 3 -3 20 -11 39 -17 51 -18 65 -2 58 67 -3 30 0 84 7 120 7 36
14 87 15 114 l2 47 -37 0 c-21 0 -51 4 -68 9 -74 23 -148 34 -154 24 -4 -5
-17 -15 -30 -22 -19 -10 -28 -9 -56 9 -31 18 -34 19 -40 4z"/>
<path d="M7045 570 c-4 -6 -19 -9 -34 -5 -24 5 -28 2 -40 -31 -7 -20 -34 -58
-60 -83 -28 -27 -54 -66 -65 -93 -10 -27 -21 -48 -26 -48 -4 0 -13 -21 -20
-47 -7 -27 -17 -52 -21 -58 -20 -21 -9 -32 29 -26 29 5 40 13 52 38 26 55 44
42 60 -44 14 -70 18 -80 49 -100 20 -14 42 -21 50 -17 9 3 25 7 36 8 16 1 19
9 21 65 1 48 6 68 19 77 12 9 17 29 19 76 1 40 10 79 23 108 16 33 18 48 11
58 -8 9 -8 20 1 38 15 35 14 64 -4 64 -8 0 -15 5 -15 11 0 6 -12 9 -28 8 -15
-2 -32 0 -39 4 -6 4 -15 2 -18 -3z"/>
<path d="M6370 517 c0 -24 -5 -70 -11 -103 -7 -32 -12 -90 -13 -129 -1 -38 -4
-77 -6 -85 -3 -9 1 -16 10 -16 8 -1 21 -2 28 -3 7 0 18 -12 24 -26 6 -14 19
-25 28 -25 10 0 23 -7 30 -15 7 -8 27 -17 46 -21 19 -3 34 -10 34 -14 0 -4 9
-10 20 -13 11 -3 20 -1 20 4 0 18 39 30 60 19 16 -8 28 -8 50 2 17 7 30 17 30
22 0 5 6 14 14 20 7 6 26 47 42 91 15 44 36 91 46 104 25 33 23 51 -6 51 -13
0 -26 7 -30 15 -3 8 -12 15 -21 15 -8 0 -15 6 -16 13 0 6 -5 1 -10 -13 -12
-31 -61 -69 -67 -52 -6 18 -43 15 -65 -5 -18 -17 -19 -17 -28 0 -10 17 -12 17
-40 0 -26 -16 -31 -16 -39 -3 -5 8 -10 24 -10 35 0 12 -13 27 -29 37 -21 11
-32 27 -37 52 -3 20 -10 39 -15 42 -5 3 -9 14 -9 25 0 10 -7 19 -15 19 -11 0
-15 -11 -15 -43z"/>
<path d="M7868 488 c-2 -14 -14 -25 -33 -31 -16 -6 -32 -13 -35 -17 -3 -4 -14
-9 -25 -11 -14 -3 -21 -13 -23 -37 -4 -36 -5 -37 -33 -21 -16 8 -25 7 -39 -6
-17 -15 -22 -15 -47 -2 -15 8 -45 23 -65 33 -21 10 -38 22 -38 26 0 20 -18 4
-34 -29 -11 -23 -20 -70 -23 -120 -4 -93 14 -142 64 -172 38 -23 59 -16 67 20
6 33 21 36 54 13 17 -12 22 -12 22 -2 0 18 43 45 48 29 2 -6 10 -18 18 -25 8
-8 14 -19 14 -25 0 -6 16 -19 35 -28 19 -9 35 -23 35 -30 0 -7 7 -13 15 -13 8
0 15 6 15 13 0 6 13 25 30 40 27 26 30 34 28 87 -1 54 11 100 43 162 5 10 9
28 9 40 1 13 7 36 14 53 14 33 10 75 -8 75 -6 0 -20 -14 -31 -30 -25 -38 -34
-38 -48 0 -13 35 -24 39 -29 8z"/>
</g>
</svg>
